<svg width="195" height="51" viewBox="0 0 195 51" fill="none" xmlns="http://www.w3.org/2000/svg">
<path d="M12.2447 41.7066C12.1447 41.4066 11.8947 40.8066 12.1347 39.0766H12.1647C12.5047 39.0266 15.1947 38.3566 15.1947 29.2866C15.1947 29.2866 14.5547 29.5466 13.7947 29.4166C14.1647 28.2166 15.3947 27.1766 15.3947 27.1766C15.3947 27.1766 16.0247 11.2266 13.8047 7.56664C13.3147 7.98664 12.7347 8.08664 12.7347 8.08664C12.7647 7.45664 13.4247 6.17664 13.4247 6.17664C13.4247 6.17664 12.2047 -0.553356 10.2247 0.0366435C10.2247 0.0366435 10.9147 1.88664 9.66469 6.51664C9.66469 6.51664 8.45469 10.8966 8.21469 13.8966C8.21469 13.8966 7.87469 17.1766 7.99469 19.4766C7.99469 19.4766 8.93468 20.7266 9.03469 21.4666C8.53469 21.6066 7.82469 21.4666 7.82469 21.4666C7.82469 21.4666 7.3947 30.7366 8.7647 35.8066C8.7647 35.8066 9.3747 38.5166 11.0147 39.0766H11.0547C11.2947 40.8166 11.0447 41.4166 10.9447 41.7166H12.2347L12.2447 41.7066ZM11.8547 38.0366C11.8547 38.0366 11.7947 38.5566 11.5947 38.5466C11.5947 38.5466 11.3847 38.5466 11.3547 38.0366C11.1047 30.3166 11.2247 21.5566 11.2247 21.5566C11.2247 17.8466 11.5547 12.3766 11.6147 11.4166C11.6747 12.3766 12.0047 17.8566 12.0047 21.5566C12.0047 32.9066 12.0347 32.7766 11.8747 38.0366H11.8547Z" fill="#DBDADE"/>
<path d="M22.8445 18.2867C22.8845 15.7467 16.9445 16.2667 16.8545 18.2367C16.9145 21.8867 17.0345 23.3267 17.0645 27.2367C17.0945 31.1467 16.4045 33.4667 16.3045 34.6567C16.2045 35.8467 15.8045 36.8267 16.5245 37.6967C17.2345 38.5667 17.9545 38.6067 18.7345 38.3567C19.5845 38.0867 20.2145 37.1967 19.9745 36.2967C19.7445 35.4267 18.7145 34.9867 17.9345 35.4167C17.4345 35.6867 17.5245 36.6967 18.3845 36.1867C18.9045 35.7667 19.2045 36.4167 19.1245 36.8267C19.0145 37.3867 18.4245 37.6167 17.9145 37.5467C17.2545 37.4567 16.9345 36.8167 16.9045 36.3167C16.8745 35.8167 17.0945 35.2267 17.5945 34.8767C18.0945 34.5267 19.0245 34.5467 19.6045 34.6867C20.1645 34.8167 20.6145 35.2767 20.9045 35.7567C21.4845 36.7567 21.3845 37.9467 20.6345 38.8267C19.6845 39.9267 18.8245 40.4467 17.4745 40.9467C16.9445 41.1467 17.1745 42.0067 17.7145 41.8067C18.6045 41.4767 18.9645 41.3367 19.7345 40.7867C20.4845 40.2567 21.2545 39.6267 21.7245 38.8267C22.0445 38.2867 22.1645 37.7067 22.1645 37.1067C22.1345 32.5367 21.9345 32.8167 22.1145 27.3967C22.2945 21.9767 22.8245 20.3267 22.8545 18.2767L22.8445 18.2867Z" fill="#F2C34E"/>
<path d="M0.414291 18.2867C0.374291 15.7467 6.3143 16.2667 6.4043 18.2367C6.3443 21.8867 6.22429 23.3267 6.19429 27.2367C6.16429 31.1467 6.8543 33.4667 6.9543 34.6567C7.0543 35.8467 7.4543 36.8267 6.7343 37.6967C6.0243 38.5667 5.30429 38.6067 4.52429 38.3567C3.67429 38.0867 3.04429 37.1967 3.28429 36.2967C3.51429 35.4267 4.5443 34.9867 5.3243 35.4167C5.8243 35.6867 5.7343 36.6967 4.8743 36.1867C4.3543 35.7667 4.05429 36.4167 4.13429 36.8267C4.24429 37.3867 4.8343 37.6167 5.3443 37.5467C6.0043 37.4567 6.32429 36.8167 6.35429 36.3167C6.38429 35.8167 6.16429 35.2267 5.66429 34.8767C5.16429 34.5267 4.2343 34.5467 3.6543 34.6867C3.0943 34.8167 2.64429 35.2767 2.35429 35.7567C1.77429 36.7567 1.8743 37.9467 2.6243 38.8267C3.5743 39.9267 4.43429 40.4467 5.78429 40.9467C6.31429 41.1467 6.0843 42.0067 5.5443 41.8067C4.6543 41.4767 4.29429 41.3367 3.52429 40.7867C2.77429 40.2567 2.00429 39.6267 1.53429 38.8267C1.21429 38.2867 1.0943 37.7067 1.0943 37.1067C1.1243 32.5367 1.32429 32.8167 1.14429 27.3967C0.964287 21.9767 0.434297 20.3267 0.404297 18.2767L0.414291 18.2867Z" fill="#F2C34E"/>
<path d="M8.94442 41.7566C8.94442 41.7566 8.41442 42.0666 9.00442 42.5966C9.00442 42.5966 9.71442 43.0966 9.77442 43.5466C9.77442 43.5466 9.87442 44.0566 9.39442 44.5766C9.13442 44.8566 8.79443 45.1466 8.21443 45.5666C8.21443 45.5666 5.61443 47.1466 5.70443 49.0766C5.70443 49.0766 6.82442 50.6566 11.4444 50.6966H11.7744C16.4244 50.6666 17.5544 49.0766 17.5544 49.0766C17.6944 47.1666 15.0344 45.5666 15.0344 45.5666C14.4544 45.1366 14.1144 44.8566 13.8444 44.5766C13.3644 44.0566 13.4644 43.5466 13.4644 43.5466C13.5244 43.0966 14.2344 42.5966 14.2344 42.5966C14.8344 42.0666 14.3844 41.7566 14.3844 41.7566C11.7844 41.4766 11.4644 41.4766 8.93443 41.7566H8.94442ZM9.92442 42.5966C9.92442 42.5966 10.6844 42.7766 11.9844 42.5666C12.0044 42.5666 10.3744 43.8666 9.92442 42.5966ZM12.0744 49.6266C12.1344 49.2366 12.4744 49.1366 12.4744 49.1366C12.6644 49.1066 13.0244 49.0566 13.1044 49.0366C15.8244 48.4866 15.1444 47.3566 15.1444 47.3566C15.7144 47.2066 16.1944 48.3066 16.1944 48.3066C15.2144 49.5766 12.0844 49.6166 12.0844 49.6166L12.0744 49.6266Z" fill="#282459"/>
<path d="M45.086 23.9965L45.036 24.0465C44.696 24.0265 44.156 24.0165 43.436 24.0165C42.716 24.0165 42.166 24.0265 41.836 24.0465L41.786 23.9965V23.6465L41.846 23.5965C42.196 23.5765 42.406 23.5565 42.456 23.5465C42.556 23.5165 42.616 23.4565 42.636 23.3565C42.676 23.1065 42.706 22.5765 42.706 21.7465V20.4965C42.526 20.4765 41.966 20.4765 41.026 20.4765C40.156 20.4765 39.586 20.4765 39.306 20.4965V21.7465C39.306 22.5665 39.326 23.1065 39.376 23.3565C39.396 23.4565 39.446 23.5165 39.556 23.5465C39.606 23.5565 39.806 23.5765 40.166 23.5965L40.216 23.6465V23.9965L40.166 24.0465C39.816 24.0265 39.286 24.0165 38.566 24.0165C37.846 24.0165 37.286 24.0265 36.966 24.0465L36.916 23.9965V23.6465L36.966 23.5965C37.316 23.5765 37.516 23.5565 37.576 23.5465C37.676 23.5165 37.736 23.4565 37.756 23.3565C37.806 23.1065 37.826 22.5765 37.826 21.7465V19.0065C37.826 18.1865 37.806 17.6465 37.756 17.3965C37.736 17.2965 37.686 17.2265 37.576 17.2065C37.526 17.1965 37.326 17.1765 36.966 17.1565L36.916 17.1065V16.7565L36.966 16.7065C37.296 16.7265 37.826 16.7365 38.566 16.7365C39.306 16.7365 39.846 16.7265 40.166 16.7065L40.216 16.7565V17.1165L40.166 17.1665C39.816 17.1865 39.616 17.2065 39.556 17.2165C39.456 17.2465 39.396 17.3065 39.376 17.4065C39.326 17.6565 39.306 18.1865 39.306 19.0165V19.8765C39.676 19.8965 40.176 19.9065 40.816 19.9065C41.826 19.9065 42.456 19.8965 42.706 19.8765V19.0165C42.706 18.1965 42.686 17.6565 42.636 17.4065C42.616 17.3065 42.556 17.2365 42.456 17.2165C42.406 17.2065 42.196 17.1865 41.846 17.1665L41.786 17.1165V16.7665L41.836 16.7165C42.166 16.7365 42.706 16.7465 43.436 16.7465C44.166 16.7465 44.726 16.7365 45.036 16.7165L45.086 16.7665V17.1265L45.036 17.1765C44.676 17.1965 44.476 17.2165 44.426 17.2265C44.326 17.2565 44.266 17.3165 44.246 17.4165C44.206 17.6665 44.176 18.1965 44.176 19.0265V21.7665C44.176 22.5865 44.196 23.1265 44.246 23.3765C44.266 23.4765 44.326 23.5365 44.426 23.5665C44.476 23.5765 44.686 23.5965 45.036 23.6165L45.086 23.6665V24.0165V23.9965Z" fill="#1B1660"/>
<path d="M53.4258 23.9967L53.3758 24.0467C52.6058 24.0267 52.1458 24.0167 51.9858 24.0167C51.3558 24.0167 50.7558 24.0267 50.2158 24.0467L50.1658 23.9967V23.6667L50.2158 23.6067L50.6658 23.5767C50.8558 23.5767 50.9558 23.4967 50.9558 23.3767C50.9558 23.3067 50.9058 23.1467 50.8058 22.8867L50.3858 21.7967C49.9058 21.7967 49.4258 21.7967 48.9258 21.7967C48.6558 21.7967 48.2558 21.7967 47.7258 21.7967L47.4958 22.4267C47.3258 22.9067 47.2358 23.2067 47.2358 23.3267C47.2358 23.4567 47.3158 23.5367 47.4758 23.5567C47.5658 23.5667 47.7458 23.5867 48.0058 23.5967L48.0558 23.6467V23.9767L48.0058 24.0267C47.3658 24.0067 46.9558 23.9967 46.7758 23.9967C46.6358 23.9967 46.2858 24.0067 45.7258 24.0267L45.6758 23.9767V23.6367L45.7358 23.5867C46.0858 23.5667 46.3058 23.4967 46.3958 23.3767C46.4758 23.2567 46.7858 22.5367 47.3058 21.2167L48.6558 17.8367C48.7558 17.5767 48.9058 17.1767 49.1158 16.6467H49.8558L52.6058 23.1067C52.7158 23.3567 52.8058 23.4967 52.8958 23.5167C53.0058 23.5567 53.1758 23.5767 53.3858 23.5767L53.4358 23.6367V23.9667L53.4258 23.9967ZM50.1358 21.2067L49.0258 18.4867L47.9658 21.2067C48.2458 21.2167 48.6158 21.2167 49.0758 21.2167C49.5358 21.2167 49.8658 21.2167 50.1458 21.2067H50.1358Z" fill="#1B1660"/>
<path d="M62.5258 23.5968C62.4058 24.1068 62.2358 24.9468 62.0258 26.1068L61.9759 26.1468H61.6458L61.5959 26.1068L61.5659 25.0568C61.5559 24.5868 61.4958 24.2968 61.3958 24.1868C61.3358 24.1268 61.2659 24.0868 61.1859 24.0668C61.0659 24.0368 60.7659 24.0268 60.2859 24.0168L59.3958 23.9968H57.9459C57.6259 23.9968 56.9058 23.9968 55.8058 24.0168H54.0558L54.0059 23.9968V23.6368L54.0558 23.5868C54.4058 23.5668 54.6159 23.5468 54.6659 23.5368C54.7659 23.5068 54.8259 23.4468 54.8459 23.3468C54.8859 23.0968 54.9159 22.5668 54.9159 21.7368V18.9968C54.9159 18.1768 54.8959 17.6368 54.8459 17.3868C54.8259 17.2868 54.7659 17.2168 54.6659 17.1968C54.6159 17.1868 54.4058 17.1668 54.0558 17.1468L54.0059 17.0968V16.7468L54.0558 16.6968C54.4358 16.7168 54.9759 16.7268 55.6559 16.7268C56.3359 16.7268 56.8659 16.7168 57.2559 16.6968L57.3058 16.7468V17.0968L57.2458 17.1468C56.8958 17.1668 56.6859 17.1868 56.6359 17.1968C56.5359 17.2268 56.4758 17.2868 56.4558 17.3868C56.4158 17.6368 56.3859 18.1668 56.3859 18.9968V21.7768C56.3859 22.4768 56.3959 23.0468 56.4359 23.4768H59.5858C59.6158 23.0468 59.6359 22.4768 59.6359 21.7768V18.9968C59.6359 18.1768 59.6159 17.6368 59.5659 17.3868C59.5459 17.2868 59.4859 17.2168 59.3859 17.1968C59.3359 17.1868 59.1258 17.1668 58.7758 17.1468L58.7159 17.0968V16.7468L58.7658 16.6968C59.0558 16.7168 59.5658 16.7268 60.2958 16.7268C61.0258 16.7268 61.5859 16.7168 61.9659 16.6968L62.0158 16.7468V17.0968L61.9659 17.1468C61.6059 17.1668 61.4058 17.1868 61.3558 17.1968C61.2558 17.2268 61.1958 17.2868 61.1758 17.3868C61.1358 17.6368 61.1058 18.1668 61.1058 18.9968V21.7568C61.1058 22.6868 61.1159 23.2268 61.1559 23.3568C61.1659 23.4168 61.1959 23.4468 61.2159 23.4568C61.2759 23.4768 61.4059 23.4868 61.6259 23.4868C61.9259 23.4868 62.2159 23.4668 62.4759 23.4368L62.5158 23.5968H62.5258Z" fill="#1B1660"/>
<path d="M66.5764 23.9965L66.5264 24.0465C66.1764 24.0265 65.6464 24.0165 64.9264 24.0165C64.2064 24.0165 63.6764 24.0265 63.3264 24.0465L63.2764 23.9965V23.6465L63.3264 23.5965C63.6764 23.5765 63.8764 23.5565 63.9364 23.5465C64.0364 23.5165 64.0964 23.4565 64.1164 23.3565C64.1664 23.1065 64.1864 22.5765 64.1864 21.7465V19.0065C64.1864 18.1865 64.1664 17.6465 64.1164 17.3965C64.0964 17.2965 64.0464 17.2265 63.9364 17.2065C63.8864 17.1965 63.6864 17.1765 63.3264 17.1565L63.2764 17.1065V16.7565L63.3264 16.7065C63.6564 16.7265 64.1864 16.7365 64.9264 16.7365C65.6664 16.7365 66.1864 16.7265 66.5164 16.7065L66.5664 16.7565V17.1065L66.5164 17.1565C66.1664 17.1765 65.9664 17.1965 65.9064 17.2065C65.8064 17.2365 65.7464 17.2965 65.7264 17.3965C65.6764 17.6465 65.6564 18.1765 65.6564 19.0065V21.7465C65.6564 22.5665 65.6764 23.1065 65.7264 23.3565C65.7464 23.4565 65.7964 23.5165 65.9064 23.5465C65.9564 23.5565 66.1564 23.5765 66.5164 23.5965L66.5664 23.6465V23.9965H66.5764Z" fill="#1B1660"/>
<path d="M75.3563 20.1867C75.3563 21.4667 74.9863 22.4667 74.2363 23.1867C73.5163 23.8967 72.5263 24.2467 71.2763 24.2467C70.0963 24.2467 69.1663 23.9167 68.4963 23.2467C67.8263 22.5767 67.4863 21.6567 67.4863 20.4667C67.4863 18.8067 68.1164 17.6567 69.3864 17.0167C69.9664 16.7267 70.6763 16.5767 71.5163 16.5767C72.7163 16.5767 73.6563 16.8967 74.3263 17.5267C75.0063 18.1667 75.3463 19.0567 75.3463 20.1767L75.3563 20.1867ZM73.7563 20.4567C73.7563 19.4567 73.5563 18.6567 73.1563 18.0667C72.7563 17.4767 72.1664 17.1867 71.3864 17.1867C70.3564 17.1867 69.6763 17.6467 69.3463 18.5667C69.1763 19.0367 69.0863 19.5767 69.0863 20.1567C69.0863 21.2267 69.2863 22.0667 69.6763 22.6867C70.0863 23.3267 70.6963 23.6467 71.5063 23.6467C72.4863 23.6467 73.1563 23.1567 73.4963 22.1867C73.6763 21.6767 73.7663 21.0967 73.7663 20.4467L73.7563 20.4567Z" fill="#1B1660"/>
<path d="M84.3458 23.9965L84.2958 24.0465C83.9558 24.0265 83.4158 24.0165 82.6958 24.0165C81.9758 24.0165 81.4258 24.0265 81.0958 24.0465L81.0458 23.9965V23.6465L81.1058 23.5965C81.4558 23.5765 81.6658 23.5565 81.7158 23.5465C81.8158 23.5165 81.8758 23.4565 81.8958 23.3565C81.9358 23.1065 81.9658 22.5765 81.9658 21.7465V20.4965C81.7858 20.4765 81.2258 20.4765 80.2858 20.4765C79.4158 20.4765 78.8458 20.4765 78.5658 20.4965V21.7465C78.5658 22.5665 78.5858 23.1065 78.6358 23.3565C78.6558 23.4565 78.7058 23.5165 78.8158 23.5465C78.8658 23.5565 79.0658 23.5765 79.4258 23.5965L79.4758 23.6465V23.9965L79.4258 24.0465C79.0758 24.0265 78.5458 24.0165 77.8258 24.0165C77.1058 24.0165 76.5458 24.0265 76.2258 24.0465L76.1758 23.9965V23.6465L76.2258 23.5965C76.5758 23.5765 76.7758 23.5565 76.8358 23.5465C76.9358 23.5165 76.9958 23.4565 77.0158 23.3565C77.0658 23.1065 77.0858 22.5765 77.0858 21.7465V19.0065C77.0858 18.1865 77.0658 17.6465 77.0158 17.3965C76.9958 17.2965 76.9458 17.2265 76.8358 17.2065C76.7858 17.1965 76.5858 17.1765 76.2258 17.1565L76.1758 17.1065V16.7565L76.2258 16.7065C76.5558 16.7265 77.0858 16.7365 77.8258 16.7365C78.5658 16.7365 79.1058 16.7265 79.4258 16.7065L79.4758 16.7565V17.1165L79.4258 17.1665C79.0758 17.1865 78.8758 17.2065 78.8158 17.2165C78.7158 17.2465 78.6558 17.3065 78.6358 17.4065C78.5858 17.6565 78.5658 18.1865 78.5658 19.0165V19.8765C78.9358 19.8965 79.4358 19.9065 80.0758 19.9065C81.0858 19.9065 81.7158 19.8965 81.9658 19.8765V19.0165C81.9658 18.1965 81.9458 17.6565 81.8958 17.4065C81.8758 17.3065 81.8158 17.2365 81.7158 17.2165C81.6658 17.2065 81.4558 17.1865 81.1058 17.1665L81.0458 17.1165V16.7665L81.0958 16.7165C81.4258 16.7365 81.9658 16.7465 82.6958 16.7465C83.4258 16.7465 83.9858 16.7365 84.2958 16.7165L84.3458 16.7665V17.1265L84.2958 17.1765C83.9358 17.1965 83.7358 17.2165 83.6858 17.2265C83.5858 17.2565 83.5258 17.3165 83.5058 17.4165C83.4658 17.6665 83.4358 18.1965 83.4358 19.0265V21.7665C83.4358 22.5865 83.4558 23.1265 83.5058 23.3765C83.5258 23.4765 83.5858 23.5365 83.6858 23.5665C83.7358 23.5765 83.9458 23.5965 84.2958 23.6165L84.3458 23.6665V24.0165V23.9965Z" fill="#1B1660"/>
<path d="M92.6865 23.9967L92.6365 24.0467C91.8665 24.0267 91.4065 24.0167 91.2465 24.0167C90.6165 24.0167 90.0165 24.0267 89.4765 24.0467L89.4265 23.9967V23.6667L89.4765 23.6067L89.9265 23.5767C90.1165 23.5767 90.2165 23.4967 90.2165 23.3767C90.2165 23.3067 90.1665 23.1467 90.0665 22.8867L89.6465 21.7967C89.1665 21.7967 88.6865 21.7967 88.1865 21.7967C87.9165 21.7967 87.5165 21.7967 86.9865 21.7967L86.7565 22.4267C86.5865 22.9067 86.4965 23.2067 86.4965 23.3267C86.4965 23.4567 86.5765 23.5367 86.7365 23.5567C86.8265 23.5667 87.0065 23.5867 87.2665 23.5967L87.3165 23.6467V23.9767L87.2665 24.0267C86.6265 24.0067 86.2165 23.9967 86.0365 23.9967C85.8965 23.9967 85.5465 24.0067 84.9865 24.0267L84.9365 23.9767V23.6367L84.9965 23.5867C85.3465 23.5667 85.5665 23.4967 85.6565 23.3767C85.7365 23.2567 86.0465 22.5367 86.5665 21.2167L87.9165 17.8367C88.0165 17.5767 88.1665 17.1767 88.3765 16.6467H89.1165L91.8665 23.1067C91.9765 23.3567 92.0665 23.4967 92.1565 23.5167C92.2665 23.5567 92.4365 23.5767 92.6465 23.5767L92.6965 23.6367V23.9667L92.6865 23.9967ZM89.3965 21.2067L88.2865 18.4867L87.2265 21.2067C87.5065 21.2167 87.8765 21.2167 88.3365 21.2167C88.7965 21.2167 89.1265 21.2167 89.4065 21.2067H89.3965Z" fill="#1B1660"/>
<path d="M100.686 24.0065L100.636 24.0465C100.036 24.0265 99.4958 24.0165 98.9858 24.0165C98.2558 24.0165 97.7458 24.0265 97.4258 24.0465L97.3759 24.0065V23.6465L97.4258 23.5965C97.7758 23.5765 97.9859 23.5565 98.0359 23.5465C98.1359 23.5165 98.1959 23.4565 98.2159 23.3565C98.2559 23.1065 98.2859 22.5765 98.2859 21.7465V19.9965L98.2658 17.4565H98.1458C97.9658 17.7465 97.6959 18.1865 97.3459 18.7765L96.4258 20.3165C95.6758 21.5665 95.2059 22.4265 95.0059 22.8865C94.9159 23.0965 94.8759 23.2265 94.8759 23.2965C94.8759 23.4165 94.9759 23.4965 95.1859 23.5365C95.3359 23.5665 95.4758 23.5865 95.6158 23.6065L95.6659 23.6565V24.0165L95.6158 24.0565C95.1058 24.0365 94.6458 24.0265 94.2058 24.0265C93.9758 24.0265 93.5958 24.0365 93.0558 24.0565L93.0059 24.0165V23.6565L93.0558 23.6065L93.3859 23.5465C93.4859 23.5265 93.5659 23.4965 93.6259 23.4665C93.7359 23.4065 93.8958 23.2265 94.1058 22.9265C94.5358 22.3065 94.8859 21.7865 95.1559 21.3665L97.5758 17.5465C97.5758 17.5465 97.6159 17.4665 97.6259 17.4465C97.6259 17.3665 97.1658 17.2665 96.2358 17.1565L96.1859 17.1065V16.7365L96.2358 16.7065C96.4058 16.7165 97.0058 16.7265 98.0458 16.7365C98.8758 16.7365 99.4459 16.7365 99.7559 16.7065L99.8258 16.7465C99.8258 16.8565 99.8158 17.2065 99.8058 17.7965C99.7858 18.6565 99.7859 19.3965 99.7859 19.9965V21.7465C99.7859 22.5665 99.8158 23.1065 99.8558 23.3565C99.8758 23.4565 99.9259 23.5165 100.036 23.5465C100.086 23.5565 100.286 23.5765 100.646 23.5965L100.696 23.6465V24.0065H100.686Z" fill="#1B1660"/>
<path d="M107.457 21.7865C107.457 22.5465 107.157 23.1265 106.537 23.5365C106.017 23.8865 105.347 24.0565 104.547 24.0565C104.387 24.0565 104.067 24.0565 103.597 24.0365C103.317 24.0265 103.077 24.0165 102.877 24.0165C102.747 24.0165 102.217 24.0265 101.317 24.0465L101.267 24.0065V23.6465L101.327 23.5965C101.637 23.5765 101.817 23.5565 101.887 23.5465C101.987 23.5165 102.047 23.4565 102.067 23.3565C102.107 23.1065 102.137 22.5765 102.137 21.7465V19.0065C102.137 18.1865 102.117 17.6465 102.067 17.3965C102.047 17.2965 101.987 17.2265 101.887 17.2065C101.827 17.1865 101.637 17.1665 101.327 17.1565L101.277 17.1065V16.7565L101.327 16.7065C101.627 16.7265 102.137 16.7365 102.857 16.7365C103.237 16.7365 103.767 16.7265 104.467 16.7065L104.517 16.7565V17.1065L104.467 17.1565C104.117 17.1765 103.907 17.1965 103.857 17.2065C103.757 17.2365 103.697 17.2965 103.677 17.3965C103.637 17.6465 103.607 18.1765 103.607 19.0065V19.8465C104.547 19.8465 105.227 19.8865 105.637 19.9565C106.837 20.1665 107.447 20.7865 107.447 21.7965L107.457 21.7865ZM105.887 21.8865C105.887 21.3965 105.737 21.0165 105.447 20.7465C105.187 20.5165 104.847 20.3865 104.427 20.3665C104.257 20.3665 103.977 20.3565 103.607 20.3565V23.4565C103.767 23.4765 103.967 23.4965 104.197 23.4965C104.587 23.4965 104.877 23.4665 105.057 23.4065C105.317 23.3165 105.527 23.1265 105.677 22.8465C105.807 22.6065 105.877 22.2765 105.877 21.8865H105.887Z" fill="#1B1660"/>
<path d="M116.566 23.9965L116.516 24.0465C116.176 24.0265 115.647 24.0165 114.917 24.0165C114.187 24.0165 113.646 24.0265 113.316 24.0465L113.266 23.9965V23.6465L113.326 23.5965C113.676 23.5765 113.876 23.5565 113.936 23.5465C114.036 23.5165 114.096 23.4565 114.116 23.3565C114.166 23.1065 114.186 22.5765 114.186 21.7465V20.4965C114.006 20.4765 113.447 20.4765 112.507 20.4765C111.637 20.4765 111.056 20.4765 110.786 20.4965V21.7465C110.786 22.5665 110.806 23.1065 110.856 23.3565C110.876 23.4565 110.936 23.5165 111.036 23.5465C111.086 23.5565 111.296 23.5765 111.646 23.5965L111.697 23.6465V23.9965L111.646 24.0465C111.306 24.0265 110.766 24.0165 110.046 24.0165C109.326 24.0165 108.767 24.0265 108.447 24.0465L108.396 23.9965V23.6465L108.447 23.5965C108.797 23.5765 109.006 23.5565 109.056 23.5465C109.156 23.5165 109.216 23.4565 109.236 23.3565C109.276 23.1065 109.306 22.5765 109.306 21.7465V19.0065C109.306 18.1865 109.286 17.6465 109.236 17.3965C109.216 17.2965 109.156 17.2265 109.056 17.2065C109.006 17.1965 108.797 17.1765 108.447 17.1565L108.396 17.1065V16.7565L108.447 16.7065C108.777 16.7265 109.306 16.7365 110.046 16.7365C110.786 16.7365 111.326 16.7265 111.646 16.7065L111.697 16.7565V17.1165L111.646 17.1665C111.296 17.1865 111.086 17.2065 111.036 17.2165C110.936 17.2465 110.876 17.3065 110.856 17.4065C110.816 17.6565 110.786 18.1865 110.786 19.0165V19.8765C111.146 19.8965 111.656 19.9065 112.296 19.9065C113.306 19.9065 113.936 19.8965 114.186 19.8765V19.0165C114.186 18.1965 114.166 17.6565 114.116 17.4065C114.096 17.3065 114.046 17.2365 113.936 17.2165C113.886 17.2065 113.686 17.1865 113.326 17.1665L113.266 17.1165V16.7665L113.316 16.7165C113.656 16.7365 114.187 16.7465 114.917 16.7465C115.647 16.7465 116.206 16.7365 116.516 16.7165L116.566 16.7665V17.1265L116.516 17.1765C116.156 17.1965 115.956 17.2165 115.906 17.2265C115.806 17.2565 115.747 17.3165 115.727 17.4165C115.677 17.6665 115.656 18.1965 115.656 19.0265V21.7665C115.656 22.5865 115.677 23.1265 115.727 23.3765C115.747 23.4765 115.796 23.5365 115.906 23.5665C115.956 23.5765 116.156 23.5965 116.516 23.6165L116.566 23.6665V24.0165V23.9965Z" fill="#1B1660"/>
<path d="M124.906 23.9967L124.856 24.0467C124.086 24.0267 123.626 24.0167 123.466 24.0167C122.826 24.0167 122.237 24.0267 121.697 24.0467L121.646 23.9967V23.6667L121.697 23.6067L122.146 23.5767C122.336 23.5767 122.426 23.4967 122.426 23.3767C122.426 23.3067 122.376 23.1467 122.276 22.8867L121.856 21.7967C121.376 21.7967 120.896 21.7967 120.396 21.7967C120.126 21.7967 119.727 21.7967 119.197 21.7967L118.966 22.4267C118.796 22.9067 118.706 23.2067 118.706 23.3267C118.706 23.4567 118.787 23.5367 118.947 23.5567C119.037 23.5667 119.217 23.5867 119.477 23.5967L119.526 23.6467V23.9767L119.477 24.0267C118.837 24.0067 118.426 23.9967 118.246 23.9967C118.106 23.9967 117.757 24.0067 117.197 24.0267L117.146 23.9767V23.6367L117.206 23.5867C117.566 23.5667 117.776 23.4967 117.866 23.3767C117.946 23.2567 118.256 22.5367 118.786 21.2167L120.137 17.8367C120.237 17.5767 120.386 17.1767 120.596 16.6467H121.336L124.086 23.1067C124.196 23.3567 124.296 23.4967 124.376 23.5167C124.486 23.5567 124.656 23.5767 124.866 23.5767L124.917 23.6367V23.9667L124.906 23.9967ZM121.616 21.2067L120.507 18.4867L119.447 21.2067C119.727 21.2167 120.096 21.2167 120.546 21.2167C120.996 21.2167 121.346 21.2167 121.616 21.2067Z" fill="#1B1660"/>
<path d="M135.816 23.9967L135.766 24.0467C134.996 24.0267 134.536 24.0167 134.376 24.0167C133.746 24.0167 133.146 24.0267 132.606 24.0467L132.556 23.9967V23.6667L132.606 23.6067L133.056 23.5767C133.246 23.5767 133.346 23.4967 133.346 23.3767C133.346 23.3067 133.296 23.1467 133.196 22.8867L132.776 21.7967C132.296 21.7967 131.816 21.7967 131.316 21.7967C131.046 21.7967 130.646 21.7967 130.116 21.7967L129.886 22.4267C129.716 22.9067 129.626 23.2067 129.626 23.3267C129.626 23.4567 129.706 23.5367 129.866 23.5567C129.956 23.5667 130.136 23.5867 130.396 23.5967L130.446 23.6467V23.9767L130.396 24.0267C129.756 24.0067 129.346 23.9967 129.166 23.9967C129.026 23.9967 128.676 24.0067 128.116 24.0267L128.066 23.9767V23.6367L128.126 23.5867C128.476 23.5667 128.696 23.4967 128.786 23.3767C128.866 23.2567 129.176 22.5367 129.696 21.2167L131.046 17.8367C131.146 17.5767 131.296 17.1767 131.506 16.6467H132.246L134.996 23.1067C135.106 23.3567 135.196 23.4967 135.286 23.5167C135.396 23.5567 135.566 23.5767 135.776 23.5767L135.826 23.6367V23.9667L135.816 23.9967ZM132.526 21.2067L131.416 18.4867L130.356 21.2067C130.636 21.2167 131.006 21.2167 131.466 21.2167C131.926 21.2167 132.256 21.2167 132.536 21.2067H132.526Z" fill="#1B1660"/>
<path d="M143.407 23.1067L143.167 23.6367C142.437 24.0367 141.627 24.2367 140.717 24.2367C138.917 24.2367 137.677 23.5867 137.017 22.2867C136.707 21.6867 136.557 21.0367 136.557 20.3267C136.557 19.1967 136.937 18.2867 137.687 17.6167C138.457 16.9167 139.507 16.5767 140.847 16.5767C141.697 16.5767 142.517 16.7267 143.327 17.0367L143.397 17.1167C143.277 17.5967 143.207 18.1467 143.177 18.7867L143.127 18.8367H142.827L142.777 18.7767C142.767 18.3567 142.747 18.0667 142.717 17.9067C142.287 17.4167 141.657 17.1767 140.847 17.1767C140.037 17.1767 139.347 17.4467 138.867 17.9767C138.387 18.5067 138.147 19.2367 138.147 20.1467C138.147 21.3767 138.577 22.3267 139.427 22.9867C139.877 23.3367 140.487 23.5167 141.247 23.5167C141.937 23.5167 142.617 23.3367 143.277 22.9867L143.407 23.1067Z" fill="#1B1660"/>
<path d="M152.097 20.1867C152.097 21.4667 151.727 22.4667 150.977 23.1867C150.257 23.8967 149.267 24.2467 148.017 24.2467C146.837 24.2467 145.907 23.9167 145.237 23.2467C144.567 22.5767 144.227 21.6567 144.227 20.4667C144.227 18.8067 144.857 17.6567 146.127 17.0167C146.707 16.7267 147.417 16.5767 148.257 16.5767C149.457 16.5767 150.397 16.8967 151.067 17.5267C151.747 18.1667 152.087 19.0567 152.087 20.1767L152.097 20.1867ZM150.497 20.4567C150.497 19.4567 150.297 18.6567 149.897 18.0667C149.497 17.4767 148.907 17.1867 148.127 17.1867C147.097 17.1867 146.417 17.6467 146.087 18.5667C145.917 19.0367 145.827 19.5767 145.827 20.1567C145.827 21.2267 146.027 22.0667 146.417 22.6867C146.827 23.3267 147.437 23.6467 148.247 23.6467C149.227 23.6467 149.897 23.1567 150.237 22.1867C150.417 21.6767 150.507 21.0967 150.507 20.4467L150.497 20.4567Z" fill="#1B1660"/>
<path d="M161.436 23.5968C161.316 24.1068 161.146 24.9468 160.936 26.1068L160.886 26.1468H160.556L160.506 26.1068L160.476 25.0568C160.466 24.5868 160.406 24.2968 160.306 24.1868C160.246 24.1268 160.176 24.0868 160.096 24.0668C159.976 24.0368 159.676 24.0268 159.196 24.0168L158.306 23.9968H156.856C156.526 23.9968 155.816 23.9968 154.716 24.0168H152.966L152.916 23.9968V23.6368L152.966 23.5868C153.316 23.5668 153.516 23.5468 153.576 23.5368C153.676 23.5068 153.736 23.4468 153.756 23.3468C153.806 23.0968 153.826 22.5668 153.826 21.7368V18.9968C153.826 18.1768 153.806 17.6368 153.756 17.3868C153.736 17.2868 153.686 17.2168 153.576 17.1968C153.526 17.1868 153.326 17.1668 152.966 17.1468L152.916 17.0968V16.7468L152.966 16.6968C153.346 16.7168 153.876 16.7268 154.566 16.7268C155.256 16.7268 155.776 16.7168 156.166 16.6968L156.216 16.7468V17.0968L156.156 17.1468C155.806 17.1668 155.606 17.1868 155.546 17.1968C155.446 17.2268 155.386 17.2868 155.366 17.3868C155.316 17.6368 155.296 18.1668 155.296 18.9968V21.7768C155.296 22.4768 155.316 23.0468 155.346 23.4768H158.496C158.526 23.0468 158.546 22.4768 158.546 21.7768V18.9968C158.546 18.1768 158.526 17.6368 158.476 17.3868C158.456 17.2868 158.406 17.2168 158.296 17.1968C158.246 17.1868 158.046 17.1668 157.686 17.1468L157.626 17.0968V16.7468L157.676 16.6968C157.966 16.7168 158.476 16.7268 159.206 16.7268C159.936 16.7268 160.496 16.7168 160.876 16.6968L160.926 16.7468V17.0968L160.876 17.1468C160.516 17.1668 160.316 17.1868 160.266 17.1968C160.166 17.2268 160.106 17.2868 160.086 17.3868C160.036 17.6368 160.016 18.1668 160.016 18.9968V21.7568C160.016 22.6868 160.036 23.2268 160.066 23.3568C160.076 23.4168 160.096 23.4468 160.126 23.4568C160.176 23.4768 160.316 23.4868 160.536 23.4868C160.836 23.4868 161.116 23.4668 161.376 23.4368L161.416 23.5968H161.436Z" fill="#1B1660"/>
<path d="M165.487 23.9965L165.437 24.0465C165.097 24.0265 164.557 24.0165 163.837 24.0165C163.117 24.0165 162.587 24.0265 162.237 24.0465L162.187 23.9965V23.6465L162.237 23.5965C162.587 23.5765 162.797 23.5565 162.847 23.5465C162.947 23.5165 163.007 23.4565 163.027 23.3565C163.067 23.1065 163.097 22.5765 163.097 21.7465V19.0065C163.097 18.1865 163.077 17.6465 163.027 17.3965C163.007 17.2965 162.947 17.2265 162.847 17.2065C162.797 17.1965 162.587 17.1765 162.237 17.1565L162.187 17.1065V16.7565L162.237 16.7065C162.567 16.7265 163.097 16.7365 163.837 16.7365C164.577 16.7365 165.097 16.7265 165.427 16.7065L165.477 16.7565V17.1065L165.427 17.1565C165.077 17.1765 164.867 17.1965 164.817 17.2065C164.717 17.2365 164.657 17.2965 164.637 17.3965C164.597 17.6465 164.567 18.1765 164.567 19.0065V21.7465C164.567 22.5665 164.587 23.1065 164.637 23.3565C164.657 23.4565 164.717 23.5165 164.817 23.5465C164.867 23.5565 165.077 23.5765 165.427 23.5965L165.477 23.6465V23.9965H165.487Z" fill="#1B1660"/>
<path d="M173.906 23.9967L173.856 24.0467C173.086 24.0267 172.626 24.0167 172.466 24.0167C171.826 24.0167 171.237 24.0267 170.697 24.0467L170.646 23.9967V23.6667L170.697 23.6067L171.146 23.5767C171.336 23.5767 171.426 23.4967 171.426 23.3767C171.426 23.3067 171.376 23.1467 171.276 22.8867L170.856 21.7967C170.376 21.7967 169.896 21.7967 169.396 21.7967C169.126 21.7967 168.727 21.7967 168.197 21.7967L167.966 22.4267C167.796 22.9067 167.706 23.2067 167.706 23.3267C167.706 23.4567 167.787 23.5367 167.947 23.5567C168.037 23.5667 168.217 23.5867 168.477 23.5967L168.526 23.6467V23.9767L168.477 24.0267C167.837 24.0067 167.426 23.9967 167.246 23.9967C167.106 23.9967 166.757 24.0067 166.197 24.0267L166.146 23.9767V23.6367L166.206 23.5867C166.566 23.5667 166.776 23.4967 166.866 23.3767C166.946 23.2567 167.256 22.5367 167.786 21.2167L169.137 17.8367C169.237 17.5767 169.386 17.1767 169.596 16.6467H170.336L173.086 23.1067C173.196 23.3567 173.296 23.4967 173.376 23.5167C173.486 23.5567 173.656 23.5767 173.866 23.5767L173.917 23.6367V23.9667L173.906 23.9967ZM170.616 21.2067L169.507 18.4867L168.447 21.2067C168.727 21.2167 169.096 21.2167 169.546 21.2167C169.996 21.2167 170.346 21.2167 170.616 21.2067Z" fill="#1B1660"/>
<path d="M183.016 23.5968C182.896 24.1068 182.726 24.9468 182.516 26.1068L182.466 26.1468H182.136L182.086 26.1068L182.056 25.0568C182.046 24.5868 181.986 24.2968 181.886 24.1868C181.826 24.1268 181.756 24.0868 181.676 24.0668C181.556 24.0368 181.256 24.0268 180.776 24.0168L179.886 23.9968H178.436C178.106 23.9968 177.396 23.9968 176.296 24.0168H174.546L174.496 23.9968V23.6368L174.546 23.5868C174.896 23.5668 175.096 23.5468 175.156 23.5368C175.256 23.5068 175.316 23.4468 175.336 23.3468C175.386 23.0968 175.406 22.5668 175.406 21.7368V18.9968C175.406 18.1768 175.386 17.6368 175.336 17.3868C175.316 17.2868 175.266 17.2168 175.156 17.1968C175.106 17.1868 174.906 17.1668 174.546 17.1468L174.496 17.0968V16.7468L174.546 16.6968C174.926 16.7168 175.456 16.7268 176.146 16.7268C176.836 16.7268 177.356 16.7168 177.746 16.6968L177.796 16.7468V17.0968L177.736 17.1468C177.386 17.1668 177.186 17.1868 177.126 17.1968C177.026 17.2268 176.966 17.2868 176.946 17.3868C176.896 17.6368 176.876 18.1668 176.876 18.9968V21.7768C176.876 22.4768 176.896 23.0468 176.926 23.4768H180.076C180.106 23.0468 180.126 22.4768 180.126 21.7768V18.9968C180.126 18.1768 180.106 17.6368 180.056 17.3868C180.036 17.2868 179.986 17.2168 179.876 17.1968C179.826 17.1868 179.626 17.1668 179.266 17.1468L179.206 17.0968V16.7468L179.256 16.6968C179.546 16.7168 180.056 16.7268 180.786 16.7268C181.516 16.7268 182.076 16.7168 182.456 16.6968L182.506 16.7468V17.0968L182.456 17.1468C182.096 17.1668 181.896 17.1868 181.846 17.1968C181.746 17.2268 181.686 17.2868 181.666 17.3868C181.616 17.6368 181.596 18.1668 181.596 18.9968V21.7568C181.596 22.6868 181.616 23.2268 181.646 23.3568C181.656 23.4168 181.676 23.4468 181.706 23.4568C181.756 23.4768 181.896 23.4868 182.116 23.4868C182.416 23.4868 182.696 23.4668 182.956 23.4368L182.996 23.5968H183.016Z" fill="#1B1660"/>
<path d="M187.056 23.9965L187.006 24.0465C186.666 24.0265 186.126 24.0165 185.406 24.0165C184.686 24.0165 184.156 24.0265 183.806 24.0465L183.756 23.9965V23.6465L183.806 23.5965C184.156 23.5765 184.366 23.5565 184.416 23.5465C184.516 23.5165 184.576 23.4565 184.596 23.3565C184.636 23.1065 184.666 22.5765 184.666 21.7465V19.0065C184.666 18.1865 184.646 17.6465 184.596 17.3965C184.576 17.2965 184.516 17.2265 184.416 17.2065C184.366 17.1965 184.156 17.1765 183.806 17.1565L183.756 17.1065V16.7565L183.806 16.7065C184.136 16.7265 184.666 16.7365 185.406 16.7365C186.146 16.7365 186.666 16.7265 186.996 16.7065L187.046 16.7565V17.1065L186.996 17.1565C186.646 17.1765 186.436 17.1965 186.386 17.2065C186.286 17.2365 186.226 17.2965 186.206 17.3965C186.166 17.6465 186.136 18.1765 186.136 19.0065V21.7465C186.136 22.5665 186.156 23.1065 186.206 23.3565C186.226 23.4565 186.286 23.5165 186.386 23.5465C186.436 23.5565 186.646 23.5765 186.996 23.5965L187.046 23.6465V23.9965H187.056Z" fill="#1B1660"/>
<path d="M194.916 24.0068L194.866 24.0468C194.336 24.0268 193.816 24.0168 193.286 24.0168C192.756 24.0168 192.206 24.0268 191.666 24.0468L191.616 24.0068V23.6468L191.666 23.5968C192.016 23.5768 192.216 23.5568 192.276 23.5468C192.376 23.5168 192.436 23.4568 192.456 23.3568C192.506 23.1068 192.526 22.5768 192.526 21.7468V18.9568C192.526 17.9368 192.506 17.3868 192.476 17.3068C192.136 17.2768 191.876 17.2568 191.706 17.2568C190.566 17.2568 189.996 17.6968 189.996 18.5868C189.996 19.0968 190.216 19.4968 190.656 19.7968C190.856 19.9268 191.056 20.0168 191.276 20.0668C191.456 20.1068 191.766 20.1368 192.196 20.1568V20.3068C191.876 20.7668 191.426 21.4468 190.846 22.3668C190.296 23.2368 189.956 23.7968 189.826 24.0568C189.486 24.0368 189.176 24.0268 188.876 24.0268C188.646 24.0268 188.246 24.0368 187.686 24.0568L187.636 24.0168V23.6568L187.676 23.6068C188.086 23.5668 188.476 23.3168 188.846 22.8668C189.116 22.4668 189.386 22.0568 189.656 21.6468C189.996 21.1468 190.286 20.7268 190.506 20.3868L190.466 20.3268C189.906 20.2568 189.446 20.0668 189.076 19.7668C188.666 19.4268 188.456 18.9868 188.456 18.4568C188.456 17.8168 188.726 17.3468 189.256 17.0468C189.676 16.8168 190.236 16.6968 190.926 16.6968C191.106 16.6968 191.316 16.6968 191.576 16.7168C191.916 16.7268 192.346 16.7368 192.836 16.7368C193.696 16.7368 194.366 16.7268 194.866 16.7068L194.916 16.7568V17.1068L194.856 17.1568C194.506 17.1768 194.306 17.1968 194.246 17.2068C194.146 17.2368 194.086 17.2968 194.066 17.3968C194.016 17.6468 193.996 18.1768 193.996 19.0068V21.7468C193.996 22.5668 194.016 23.1068 194.066 23.3568C194.086 23.4568 194.136 23.5168 194.246 23.5468C194.296 23.5568 194.496 23.5768 194.856 23.5968L194.906 23.6468V24.0068H194.916Z" fill="#1B1660"/>
<path d="M44.5762 36.7367L44.5262 36.7867C43.7562 36.7667 43.2962 36.7567 43.1362 36.7567C42.5062 36.7567 41.9062 36.7667 41.3662 36.7867L41.3162 36.7367V36.4067L41.3662 36.3467L41.8162 36.3167C42.0062 36.3167 42.1062 36.2367 42.1062 36.1167C42.1062 36.0467 42.0562 35.8867 41.9562 35.6267L41.5362 34.5367C41.0562 34.5367 40.5762 34.5367 40.0762 34.5367C39.8062 34.5367 39.4062 34.5367 38.8762 34.5367L38.6462 35.1667C38.4762 35.6467 38.3862 35.9467 38.3862 36.0667C38.3862 36.1967 38.4662 36.2767 38.6262 36.2967C38.7162 36.3067 38.8962 36.3267 39.1562 36.3367L39.2062 36.3867V36.7167L39.1562 36.7667C38.5162 36.7467 38.1062 36.7367 37.9262 36.7367C37.7862 36.7367 37.4362 36.7467 36.8762 36.7667L36.8262 36.7167V36.3767L36.8862 36.3267C37.2362 36.3067 37.4562 36.2367 37.5462 36.1167C37.6262 35.9967 37.9362 35.2767 38.4562 33.9567L39.8062 30.5767C39.9062 30.3167 40.0562 29.9167 40.2662 29.3867H41.0062L43.7562 35.8467C43.8662 36.0967 43.9562 36.2367 44.0462 36.2567C44.1562 36.2967 44.3262 36.3167 44.5362 36.3167L44.5862 36.3767V36.7067L44.5762 36.7367ZM41.2862 33.9467L40.1762 31.2267L39.1162 33.9467C39.3962 33.9567 39.7662 33.9567 40.2262 33.9567C40.6862 33.9567 41.0162 33.9567 41.2962 33.9467H41.2862Z" fill="#1B1660"/>
<path d="M52.9062 36.3268C52.7762 36.8668 52.6162 37.7068 52.4062 38.8468L52.3562 38.8868H52.0262L51.9762 38.8468L51.9462 37.8068C51.9362 37.3268 51.8762 37.0368 51.7762 36.9368C51.7162 36.8768 51.6462 36.8368 51.5662 36.8168C51.4562 36.7968 51.1562 36.7768 50.6662 36.7668L49.8862 36.7468L46.8062 36.7668C46.3862 36.7668 46.1462 36.9068 46.0862 37.1768C46.0562 37.3168 46.0362 37.8668 46.0062 38.8468L45.9562 38.8868H45.6262L45.5762 38.8468L45.3862 37.8268C45.3462 37.6168 45.3062 37.3868 45.2562 37.1568L45.0762 36.3168L45.1162 36.1668C45.4062 36.1868 45.6162 36.2068 45.7562 36.2068C45.8062 36.2068 45.8762 36.2068 45.9762 36.1868C46.1262 35.9868 46.2862 35.7368 46.4662 35.4468L49.7262 30.3468C49.7762 30.2568 49.8162 30.1968 49.8162 30.1668C49.8162 30.0668 49.3562 29.9668 48.4262 29.8668L48.3762 29.8168V29.4568L48.4262 29.4268C48.7462 29.4468 49.3562 29.4568 50.2362 29.4568C51.1162 29.4568 51.7162 29.4468 51.9462 29.4268L52.0162 29.4668C51.9862 30.6768 51.9662 31.4368 51.9662 31.7568V33.9868C51.9662 34.6368 51.9762 35.3768 52.0162 36.2068H52.1662C52.2962 36.2068 52.5262 36.2068 52.8562 36.1668L52.8962 36.3168L52.9062 36.3268ZM50.4962 34.3068V32.7368L50.4762 30.1968H50.3562C50.2362 30.3868 50.0462 30.6868 49.8062 31.0868L46.8662 36.2368H50.4762C50.4962 35.6068 50.4962 34.9668 50.4962 34.3168V34.3068Z" fill="#1B1660"/>
<path d="M59.6564 34.4168C59.6564 35.2868 59.2364 35.9568 58.3964 36.4368C57.9864 36.6668 57.4464 36.7868 56.7964 36.7868C56.5864 36.7868 56.4164 36.7868 56.2864 36.7868L55.0464 36.7668C54.6064 36.7668 54.2564 36.7768 54.0164 36.7968L53.9664 36.7468V36.5968L53.9864 36.5368C54.2464 36.3768 54.3764 36.2668 54.3964 36.2268C54.4264 36.1668 54.4464 35.9368 54.4564 35.5368V31.7468C54.4664 30.9268 54.4564 30.3868 54.4064 30.1368C54.3864 30.0368 54.3264 29.9668 54.2264 29.9468C54.1764 29.9368 53.9664 29.9168 53.6164 29.8968L53.5664 29.8468V29.4968L53.6164 29.4468C53.9264 29.4668 54.4564 29.4768 55.2064 29.4768C55.6864 29.4768 56.1164 29.4668 56.4964 29.4468C56.7964 29.4368 57.0564 29.4268 57.2664 29.4268C58.2264 29.4268 58.8664 29.6468 59.1664 30.0868C59.3264 30.3168 59.4064 30.5868 59.4064 30.8868C59.4064 31.3768 59.2164 31.7868 58.8364 32.1168C58.6564 32.2768 58.4664 32.3868 58.2664 32.4668C58.0364 32.5568 57.7864 32.6268 57.5164 32.6868C58.9364 32.7468 59.6564 33.3268 59.6564 34.4268V34.4168ZM57.8464 31.1368C57.8464 30.3768 57.4464 29.9968 56.6564 29.9968C56.3964 29.9968 56.1664 30.0068 55.9864 30.0368C55.9764 30.3968 55.9664 30.7368 55.9664 31.0368V32.4668C56.0464 32.4668 56.2064 32.4768 56.4464 32.4768C57.0664 32.4768 57.4864 32.2768 57.6764 31.8768C57.7864 31.6468 57.8464 31.3968 57.8464 31.1368ZM58.0664 34.5768C58.0664 33.5368 57.5164 33.0168 56.4364 33.0168C56.2964 33.0168 56.1464 33.0168 55.9664 33.0368V35.4368C55.9664 35.6968 55.9664 35.9468 55.9864 36.1968C56.1264 36.2168 56.3264 36.2368 56.5864 36.2368C57.0764 36.2368 57.4464 36.0868 57.7064 35.7768C57.9564 35.4868 58.0764 35.0868 58.0764 34.5768H58.0664Z" fill="#1B1660"/>
<path d="M68.6161 32.9267C68.6161 34.2067 68.2461 35.2067 67.4961 35.9267C66.7761 36.6367 65.7861 36.9867 64.5361 36.9867C63.3561 36.9867 62.4261 36.6567 61.7561 35.9867C61.0861 35.3167 60.7461 34.3966 60.7461 33.2066C60.7461 31.5466 61.3761 30.3967 62.6461 29.7567C63.2261 29.4667 63.9361 29.3167 64.7761 29.3167C65.9761 29.3167 66.9161 29.6367 67.5861 30.2667C68.2661 30.9067 68.6061 31.7966 68.6061 32.9166L68.6161 32.9267ZM67.0161 33.1967C67.0161 32.1967 66.8161 31.3967 66.4161 30.8067C66.0161 30.2167 65.4261 29.9267 64.6461 29.9267C63.6161 29.9267 62.9361 30.3867 62.6061 31.3067C62.4361 31.7767 62.3461 32.3167 62.3461 32.8967C62.3461 33.9667 62.5461 34.8067 62.9361 35.4267C63.3461 36.0667 63.9561 36.3867 64.7661 36.3867C65.7461 36.3867 66.4161 35.8967 66.7561 34.9267C66.9361 34.4167 67.0261 33.8366 67.0261 33.1866L67.0161 33.1967Z" fill="#1B1660"/>
<path d="M77.0758 36.7268L77.0158 36.7868C76.4958 36.7668 76.1958 36.7468 76.1158 36.7468C75.9458 36.7468 75.7958 36.7468 75.6558 36.7568C75.4558 36.7668 75.3258 36.7668 75.2658 36.7668C75.1558 36.7668 75.0558 36.7368 74.9758 36.6768C74.7858 36.5268 74.5358 36.2868 74.2358 35.9468L71.8158 33.2468V34.4768C71.8158 35.2968 71.8358 35.8368 71.8858 36.0868C71.9058 36.1868 71.9558 36.2468 72.0658 36.2768C72.1158 36.2868 72.3158 36.3068 72.6758 36.3268L72.7258 36.3768V36.7268L72.6758 36.7768C72.3258 36.7568 71.7958 36.7468 71.0758 36.7468C70.3558 36.7468 69.7958 36.7568 69.4758 36.7768L69.4258 36.7268V36.3768L69.4758 36.3268C69.8258 36.3068 70.0258 36.2868 70.0858 36.2768C70.1858 36.2468 70.2458 36.1868 70.2658 36.0868C70.3158 35.8368 70.3358 35.3068 70.3358 34.4768V31.7368C70.3358 30.9168 70.3158 30.3768 70.2658 30.1268C70.2458 30.0268 70.1958 29.9568 70.0858 29.9368C70.0358 29.9268 69.8358 29.9068 69.4758 29.8868L69.4258 29.8368V29.4868L69.4758 29.4368C69.8058 29.4568 70.3358 29.4668 71.0758 29.4668C71.8158 29.4668 72.3558 29.4568 72.6758 29.4368L72.7258 29.4868V29.8368L72.6758 29.8868C72.3258 29.9068 72.1258 29.9268 72.0658 29.9368C71.9658 29.9668 71.9058 30.0268 71.8858 30.1268C71.8358 30.3768 71.8158 30.9068 71.8158 31.7368V33.0268C71.9858 32.8568 72.3558 32.4768 72.9258 31.8968C73.2258 31.5868 73.4358 31.3668 73.5658 31.2268C73.9058 30.8468 74.1258 30.5868 74.2458 30.4368C74.4358 30.1968 74.5258 30.0268 74.5258 29.9268C74.5258 29.8868 74.5158 29.8568 74.4758 29.8368L74.4158 29.7868V29.4968L74.4758 29.4468C74.8558 29.4668 75.2158 29.4768 75.5458 29.4768C75.7758 29.4768 76.1158 29.4668 76.5658 29.4468L76.6258 29.4968V29.8468L76.5758 29.8968C76.2058 29.9068 75.9258 29.9568 75.7458 30.0368C75.5958 30.1068 75.3758 30.2668 75.0658 30.5368C74.7258 30.8268 74.2758 31.2368 73.7258 31.7668C73.5258 31.9668 73.2458 32.2268 72.9058 32.5568L75.8758 35.6368C76.2858 36.0668 76.6658 36.3068 77.0358 36.3768L77.0858 36.4268V36.7468L77.0758 36.7268Z" fill="#1B1660"/>
<path d="M85.2258 36.7367L85.1758 36.7867C84.4058 36.7667 83.9458 36.7567 83.7858 36.7567C83.1458 36.7567 82.5558 36.7667 82.0158 36.7867L81.9658 36.7367V36.4067L82.0158 36.3467L82.4658 36.3167C82.6558 36.3167 82.7458 36.2367 82.7458 36.1167C82.7458 36.0467 82.6958 35.8867 82.5958 35.6267L82.1758 34.5367C81.6958 34.5367 81.2158 34.5367 80.7158 34.5367C80.4458 34.5367 80.0458 34.5367 79.5158 34.5367L79.2858 35.1667C79.1158 35.6467 79.0258 35.9467 79.0258 36.0667C79.0258 36.1967 79.1058 36.2767 79.2658 36.2967C79.3558 36.3067 79.5358 36.3267 79.7958 36.3367L79.8458 36.3867V36.7167L79.7958 36.7667C79.1558 36.7467 78.7458 36.7367 78.5658 36.7367C78.4258 36.7367 78.0758 36.7467 77.5158 36.7667L77.4658 36.7167V36.3767L77.5258 36.3267C77.8858 36.3067 78.0958 36.2367 78.1858 36.1167C78.2658 35.9967 78.5758 35.2767 79.1058 33.9567L80.4558 30.5767C80.5558 30.3167 80.7058 29.9167 80.9158 29.3867H81.6558L84.4058 35.8467C84.5158 36.0967 84.6158 36.2367 84.6958 36.2567C84.8058 36.2967 84.9758 36.3167 85.1858 36.3167L85.2358 36.3767V36.7067L85.2258 36.7367ZM81.9358 33.9467L80.8258 31.2267L79.7658 33.9467C80.0458 33.9567 80.4158 33.9567 80.8658 33.9567C81.3158 33.9567 81.6658 33.9567 81.9358 33.9467Z" fill="#1B1660"/>
<path d="M92.3463 29.4768C92.3063 29.7368 92.2863 29.9968 92.2763 30.2668V31.1368L92.2163 31.1868H91.8863L91.8263 31.1368C91.8063 30.6968 91.7863 30.4368 91.7663 30.3568C91.7263 30.2168 91.6163 30.1368 91.4363 30.1168C91.3663 30.1068 91.0463 30.0968 90.4663 30.0968H89.7763C89.7763 30.2168 89.7663 30.6968 89.7663 31.5368V34.4768C89.7663 35.2968 89.7863 35.8368 89.8363 36.0868C89.8563 36.1868 89.9063 36.2468 90.0163 36.2768C90.0663 36.2868 90.2663 36.3068 90.6263 36.3268L90.6763 36.3768V36.7268L90.6263 36.7768C90.2863 36.7568 89.7563 36.7468 89.0263 36.7468C88.2963 36.7468 87.7563 36.7568 87.4263 36.7768L87.3763 36.7268V36.3768L87.4263 36.3268C87.7763 36.3068 87.9763 36.2868 88.0363 36.2768C88.1363 36.2468 88.1963 36.1868 88.2163 36.0868C88.2663 35.8368 88.2863 35.3068 88.2863 34.4768V31.5368C88.2863 30.6868 88.2863 30.2068 88.2663 30.0968H87.5263C86.9063 30.0968 86.5463 30.1168 86.4463 30.1568C86.3963 30.1768 86.3563 30.2068 86.3363 30.2368C86.3063 30.2968 86.2763 30.4068 86.2563 30.5668C86.2363 30.7468 86.2163 30.9368 86.2063 31.1368L86.1563 31.1868H85.8263L85.7663 31.1368V30.2468C85.7563 29.9968 85.7363 29.7368 85.6963 29.4768L85.7463 29.4268C85.9463 29.4668 86.6963 29.4768 87.9763 29.4768H90.0763C91.2563 29.4768 92.0063 29.4568 92.3063 29.4268L92.3563 29.4768H92.3463Z" fill="#1B1660"/>
<path d="M96.2766 36.7368L96.2266 36.7868C95.8866 36.7668 95.3466 36.7568 94.6266 36.7568C93.9066 36.7568 93.3766 36.7668 93.0266 36.7868L92.9766 36.7368V36.3868L93.0266 36.3368C93.3766 36.3168 93.5866 36.2968 93.6366 36.2868C93.7366 36.2568 93.7966 36.1968 93.8166 36.0968C93.8566 35.8468 93.8866 35.3168 93.8866 34.4868V31.7468C93.8866 30.9268 93.8666 30.3868 93.8166 30.1368C93.7966 30.0368 93.7366 29.9668 93.6366 29.9468C93.5866 29.9368 93.3766 29.9168 93.0266 29.8968L92.9766 29.8468V29.4968L93.0266 29.4468C93.3566 29.4668 93.8866 29.4768 94.6266 29.4768C95.3666 29.4768 95.8866 29.4668 96.2166 29.4468L96.2665 29.4968V29.8468L96.2166 29.8968C95.8666 29.9168 95.6565 29.9368 95.6065 29.9468C95.5065 29.9768 95.4465 30.0368 95.4265 30.1368C95.3865 30.3868 95.3565 30.9168 95.3565 31.7468V34.4868C95.3565 35.3068 95.3765 35.8468 95.4265 36.0968C95.4465 36.1968 95.5065 36.2568 95.6065 36.2868C95.6565 36.2968 95.8666 36.3168 96.2166 36.3368L96.2665 36.3868V36.7368H96.2766Z" fill="#1B1660"/>
<path d="M103.107 34.4168C103.107 35.2868 102.687 35.9568 101.847 36.4368C101.437 36.6668 100.897 36.7868 100.247 36.7868C100.037 36.7868 99.8666 36.7868 99.7366 36.7868L98.4966 36.7668C98.0566 36.7668 97.7066 36.7768 97.4666 36.7968L97.4166 36.7468V36.5968L97.4366 36.5368C97.6966 36.3768 97.8266 36.2668 97.8466 36.2268C97.8766 36.1668 97.8966 35.9368 97.9066 35.5368V31.7468C97.9166 30.9268 97.9066 30.3868 97.8566 30.1368C97.8366 30.0368 97.7766 29.9668 97.6766 29.9468C97.6266 29.9368 97.4166 29.9168 97.0666 29.8968L97.0166 29.8468V29.4968L97.0666 29.4468C97.3766 29.4668 97.9066 29.4768 98.6566 29.4768C99.1366 29.4768 99.5666 29.4668 99.9466 29.4468C100.247 29.4368 100.507 29.4268 100.717 29.4268C101.677 29.4268 102.317 29.6468 102.617 30.0868C102.777 30.3168 102.857 30.5868 102.857 30.8868C102.857 31.3768 102.667 31.7868 102.287 32.1168C102.107 32.2768 101.917 32.3868 101.717 32.4668C101.487 32.5568 101.237 32.6268 100.967 32.6868C102.387 32.7468 103.107 33.3268 103.107 34.4268V34.4168ZM101.297 31.1368C101.297 30.3768 100.897 29.9968 100.107 29.9968C99.8466 29.9968 99.6166 30.0068 99.4366 30.0368C99.4266 30.3968 99.4166 30.7368 99.4166 31.0368V32.4668C99.4966 32.4668 99.6566 32.4768 99.8966 32.4768C100.517 32.4768 100.937 32.2768 101.127 31.8768C101.237 31.6468 101.297 31.3968 101.297 31.1368ZM101.517 34.5768C101.517 33.5368 100.967 33.0168 99.8866 33.0168C99.7466 33.0168 99.5966 33.0168 99.4166 33.0368V35.4368C99.4166 35.6968 99.4166 35.9468 99.4366 36.1968C99.5766 36.2168 99.7766 36.2368 100.037 36.2368C100.527 36.2368 100.897 36.0868 101.157 35.7768C101.407 35.4868 101.527 35.0868 101.527 34.5768H101.517Z" fill="#1B1660"/>
<path d="M113.426 29.4968V29.8368L113.366 29.8868C113.006 29.9468 112.746 30.0468 112.596 30.1868C112.446 30.3268 112.156 30.8368 111.706 31.7068C111.266 32.5568 110.836 33.4168 110.396 34.2668C109.646 35.6468 109.116 36.4368 108.786 36.6368C108.536 36.7968 108.246 36.8668 107.926 36.8668C107.776 36.8668 107.626 36.8468 107.456 36.7968L107.406 36.7168C107.406 36.6468 107.406 36.5968 107.406 36.5668C107.406 36.2168 107.356 35.7268 107.256 35.1168L107.306 35.0468L107.476 35.0168L107.556 35.0468C107.836 35.5068 108.156 35.7268 108.516 35.7268C108.806 35.7268 109.026 35.6368 109.176 35.4568C109.246 35.3768 109.326 35.2368 109.416 35.0368C108.606 33.2768 107.966 31.8368 107.506 30.7068C107.356 30.3468 107.236 30.1168 107.136 30.0368C107.056 29.9668 106.816 29.9168 106.416 29.8868L106.356 29.8368V29.4968L106.406 29.4368C106.616 29.4568 107.166 29.4768 108.046 29.4768C108.546 29.4768 109.056 29.4668 109.586 29.4468L109.646 29.5068V29.8468L109.596 29.8968C109.536 29.8968 109.356 29.9168 109.026 29.9668C108.886 29.9868 108.816 30.0368 108.816 30.1368C108.816 30.1668 108.836 30.2468 108.876 30.3668C108.976 30.6668 109.206 31.2068 109.556 31.9868L110.266 33.5168L111.126 31.6668C111.356 31.1868 111.516 30.8068 111.606 30.5268C111.656 30.3768 111.686 30.2768 111.686 30.2168C111.686 30.1268 111.566 30.0568 111.336 30.0068C111.156 29.9668 110.996 29.9368 110.846 29.9168L110.786 29.8668V29.5168L110.846 29.4568C111.176 29.4768 111.636 29.4968 112.216 29.4968C112.706 29.4968 113.076 29.4868 113.356 29.4668L113.406 29.5268L113.426 29.4968Z" fill="#1B1660"/>
<path d="M121.417 36.7268L121.357 36.7868C120.837 36.7668 120.537 36.7468 120.457 36.7468C120.287 36.7468 120.137 36.7468 119.997 36.7568C119.797 36.7668 119.667 36.7668 119.607 36.7668C119.497 36.7668 119.397 36.7368 119.317 36.6768C119.127 36.5268 118.877 36.2868 118.577 35.9468L116.157 33.2468V34.4768C116.157 35.2968 116.177 35.8368 116.227 36.0868C116.247 36.1868 116.297 36.2468 116.407 36.2768C116.457 36.2868 116.657 36.3068 117.017 36.3268L117.067 36.3768V36.7268L117.017 36.7768C116.667 36.7568 116.137 36.7468 115.417 36.7468C114.697 36.7468 114.137 36.7568 113.817 36.7768L113.767 36.7268V36.3768L113.817 36.3268C114.167 36.3068 114.367 36.2868 114.427 36.2768C114.527 36.2468 114.587 36.1868 114.607 36.0868C114.657 35.8368 114.677 35.3068 114.677 34.4768V31.7368C114.677 30.9168 114.657 30.3768 114.607 30.1268C114.587 30.0268 114.537 29.9568 114.427 29.9368C114.377 29.9268 114.177 29.9068 113.817 29.8868L113.767 29.8368V29.4868L113.817 29.4368C114.147 29.4568 114.677 29.4668 115.417 29.4668C116.157 29.4668 116.697 29.4568 117.017 29.4368L117.067 29.4868V29.8368L117.017 29.8868C116.667 29.9068 116.467 29.9268 116.407 29.9368C116.307 29.9668 116.247 30.0268 116.227 30.1268C116.177 30.3768 116.157 30.9068 116.157 31.7368V33.0268C116.327 32.8568 116.697 32.4768 117.267 31.8968C117.567 31.5868 117.777 31.3668 117.907 31.2268C118.247 30.8468 118.467 30.5868 118.587 30.4368C118.777 30.1968 118.867 30.0268 118.867 29.9268C118.867 29.8868 118.857 29.8568 118.817 29.8368L118.757 29.7868V29.4968L118.817 29.4468C119.197 29.4668 119.557 29.4768 119.887 29.4768C120.117 29.4768 120.457 29.4668 120.907 29.4468L120.967 29.4968V29.8468L120.917 29.8968C120.547 29.9068 120.267 29.9568 120.087 30.0368C119.937 30.1068 119.717 30.2668 119.407 30.5368C119.067 30.8268 118.617 31.2368 118.067 31.7668C117.867 31.9668 117.587 32.2268 117.247 32.5568L120.217 35.6368C120.627 36.0668 121.007 36.3068 121.377 36.3768L121.427 36.4268V36.7468L121.417 36.7268Z" fill="#1B1660"/>
<path d="M127.766 31.0668C127.766 31.7768 127.526 32.3368 127.036 32.7368C126.546 33.1368 126.007 33.3368 125.387 33.3368C125.177 33.3368 124.967 33.3168 124.757 33.2668C124.727 33.1768 124.666 33.0468 124.576 32.8968L124.686 32.7868C124.836 32.8368 124.966 32.8568 125.086 32.8568C125.436 32.8568 125.716 32.7368 125.926 32.4868C126.136 32.2368 126.246 31.8968 126.246 31.4468C126.246 30.4868 125.817 29.9968 124.947 29.9968C124.847 29.9968 124.636 30.0168 124.326 30.0568C124.296 30.1368 124.276 30.7068 124.276 31.7468V34.4868C124.276 35.3068 124.296 35.8468 124.346 36.0968C124.366 36.1968 124.426 36.2568 124.526 36.2868C124.556 36.2868 124.796 36.3068 125.236 36.3368L125.296 36.3968V36.7368L125.246 36.7868C124.776 36.7668 124.206 36.7568 123.546 36.7568C122.806 36.7568 122.267 36.7668 121.947 36.7868L121.896 36.7368V36.3868L121.956 36.3268C122.306 36.3068 122.506 36.2868 122.556 36.2768C122.656 36.2468 122.716 36.1868 122.736 36.0868C122.776 35.8368 122.806 35.3068 122.806 34.4768V31.7368C122.806 30.9168 122.786 30.3768 122.736 30.1268C122.716 30.0268 122.656 29.9568 122.556 29.9368C122.506 29.9268 122.297 29.9068 121.947 29.8868L121.896 29.8268V29.4868L121.956 29.4368C122.296 29.4568 122.816 29.4668 123.516 29.4668C123.806 29.4668 124.226 29.4668 124.766 29.4468C125.316 29.4368 125.626 29.4268 125.706 29.4268C126.656 29.4268 127.266 29.6668 127.556 30.1468C127.706 30.3968 127.776 30.6968 127.776 31.0468L127.766 31.0668Z" fill="#1B1660"/>
<path d="M136.046 36.7367L135.996 36.7867C135.226 36.7667 134.766 36.7567 134.606 36.7567C133.966 36.7567 133.376 36.7667 132.836 36.7867L132.786 36.7367V36.4067L132.836 36.3467L133.286 36.3167C133.476 36.3167 133.566 36.2367 133.566 36.1167C133.566 36.0467 133.516 35.8867 133.416 35.6267L132.996 34.5367C132.516 34.5367 132.036 34.5367 131.536 34.5367C131.266 34.5367 130.866 34.5367 130.336 34.5367L130.106 35.1667C129.936 35.6467 129.846 35.9467 129.846 36.0667C129.846 36.1967 129.926 36.2767 130.086 36.2967C130.176 36.3067 130.356 36.3267 130.616 36.3367L130.666 36.3867V36.7167L130.616 36.7667C129.976 36.7467 129.566 36.7367 129.386 36.7367C129.246 36.7367 128.896 36.7467 128.336 36.7667L128.286 36.7167V36.3767L128.346 36.3267C128.706 36.3067 128.916 36.2367 129.006 36.1167C129.086 35.9967 129.396 35.2767 129.926 33.9567L131.276 30.5767C131.376 30.3167 131.526 29.9167 131.736 29.3867H132.476L135.226 35.8467C135.336 36.0967 135.436 36.2367 135.516 36.2567C135.626 36.2967 135.796 36.3167 136.006 36.3167L136.056 36.3767V36.7067L136.046 36.7367ZM132.756 33.9467L131.646 31.2267L130.586 33.9467C130.866 33.9567 131.236 33.9567 131.686 33.9567C132.136 33.9567 132.486 33.9567 132.756 33.9467Z" fill="#1B1660"/>
<path d="M137.966 27.8266C137.966 28.0366 137.896 28.2166 137.746 28.3566C137.596 28.4966 137.416 28.5766 137.216 28.5766C137.016 28.5766 136.826 28.5066 136.676 28.3566C136.526 28.2066 136.456 28.0266 136.456 27.8166C136.456 27.6066 136.526 27.4166 136.676 27.2666C136.826 27.1166 136.996 27.0466 137.206 27.0466C137.416 27.0466 137.586 27.1166 137.736 27.2766C137.886 27.4266 137.956 27.6066 137.956 27.8166L137.966 27.8266ZM140.006 36.7366L139.956 36.7866C139.616 36.7666 139.076 36.7566 138.356 36.7566C137.636 36.7566 137.106 36.7666 136.756 36.7866L136.706 36.7366V36.3866L136.756 36.3366C137.106 36.3166 137.316 36.2966 137.366 36.2866C137.466 36.2566 137.526 36.1966 137.546 36.0966C137.586 35.8466 137.616 35.3166 137.616 34.4866V31.7466C137.616 30.9266 137.596 30.3866 137.546 30.1366C137.526 30.0366 137.466 29.9666 137.366 29.9466C137.316 29.9366 137.106 29.9166 136.756 29.8966L136.706 29.8466V29.4966L136.756 29.4466C137.086 29.4666 137.616 29.4766 138.356 29.4766C139.096 29.4766 139.616 29.4666 139.946 29.4466L139.996 29.4966V29.8466L139.946 29.8966C139.596 29.9166 139.386 29.9366 139.336 29.9466C139.236 29.9766 139.176 30.0366 139.156 30.1366C139.116 30.3866 139.086 30.9166 139.086 31.7466V34.4866C139.086 35.3066 139.106 35.8466 139.156 36.0966C139.176 36.1966 139.236 36.2566 139.336 36.2866C139.386 36.2966 139.596 36.3166 139.946 36.3366L139.996 36.3866V36.7366H140.006ZM140.246 27.8266C140.246 28.0366 140.176 28.2166 140.026 28.3666C139.876 28.5166 139.696 28.5866 139.486 28.5866C139.276 28.5866 139.106 28.5166 138.956 28.3666C138.806 28.2166 138.736 28.0366 138.736 27.8266C138.736 27.6166 138.806 27.4366 138.956 27.2866C139.106 27.1366 139.286 27.0566 139.486 27.0566C139.686 27.0566 139.866 27.1266 140.016 27.2766C140.166 27.4266 140.236 27.6066 140.236 27.8266H140.246Z" fill="#1B1660"/>
<path d="M148.937 36.7368L148.887 36.7868C148.547 36.7668 148.017 36.7568 147.287 36.7568C146.557 36.7568 146.017 36.7668 145.687 36.7868L145.637 36.7368V36.3868L145.697 36.3368C146.047 36.3168 146.247 36.2968 146.307 36.2868C146.407 36.2568 146.467 36.1968 146.487 36.0968C146.537 35.8468 146.557 35.3168 146.557 34.4868V33.2368C146.377 33.2168 145.817 33.2168 144.877 33.2168C144.007 33.2168 143.427 33.2168 143.157 33.2368V34.4868C143.157 35.3068 143.177 35.8468 143.227 36.0968C143.247 36.1968 143.307 36.2568 143.407 36.2868C143.457 36.2968 143.667 36.3168 144.017 36.3368L144.067 36.3868V36.7368L144.017 36.7868C143.677 36.7668 143.137 36.7568 142.417 36.7568C141.697 36.7568 141.137 36.7668 140.817 36.7868L140.767 36.7368V36.3868L140.817 36.3368C141.167 36.3168 141.377 36.2968 141.427 36.2868C141.527 36.2568 141.587 36.1968 141.607 36.0968C141.647 35.8468 141.677 35.3168 141.677 34.4868V31.7468C141.677 30.9268 141.657 30.3868 141.607 30.1368C141.587 30.0368 141.527 29.9668 141.427 29.9468C141.377 29.9368 141.167 29.9168 140.817 29.8968L140.767 29.8468V29.4968L140.817 29.4468C141.147 29.4668 141.677 29.4768 142.417 29.4768C143.157 29.4768 143.697 29.4668 144.017 29.4468L144.067 29.4968V29.8568L144.017 29.9068C143.667 29.9268 143.457 29.9468 143.407 29.9568C143.307 29.9868 143.247 30.0468 143.227 30.1468C143.187 30.3968 143.157 30.9268 143.157 31.7568V32.6168C143.517 32.6368 144.027 32.6468 144.667 32.6468C145.677 32.6468 146.307 32.6368 146.557 32.6168V31.7568C146.557 30.9368 146.537 30.3968 146.487 30.1468C146.467 30.0468 146.417 29.9768 146.307 29.9568C146.257 29.9468 146.057 29.9268 145.697 29.9068L145.637 29.8568V29.5068L145.687 29.4568C146.027 29.4768 146.557 29.4868 147.287 29.4868C148.017 29.4868 148.577 29.4768 148.887 29.4568L148.937 29.5068V29.8668L148.887 29.9168C148.527 29.9368 148.327 29.9568 148.277 29.9668C148.177 29.9968 148.117 30.0568 148.097 30.1568C148.047 30.4068 148.027 30.9368 148.027 31.7668V34.5068C148.027 35.3268 148.047 35.8668 148.097 36.1168C148.117 36.2168 148.167 36.2768 148.277 36.3068C148.327 36.3168 148.527 36.3368 148.887 36.3568L148.937 36.4068V36.7568V36.7368Z" fill="#1B1660"/>
<path d="M157.626 36.7568L157.576 36.7968C156.856 36.7768 156.326 36.7668 155.956 36.7668C155.216 36.7668 154.686 36.7768 154.366 36.7968L154.316 36.7468V36.3968L154.366 36.3468C154.726 36.3268 154.926 36.3068 154.976 36.2968C155.076 36.2668 155.136 36.2068 155.156 36.1068C155.196 35.8568 155.226 35.3268 155.226 34.4968V30.6668L151.986 36.7968C151.626 36.7868 151.296 36.7768 150.986 36.7768C150.796 36.7768 150.346 36.7768 149.646 36.7968L149.596 36.7468V36.3968L149.646 36.3468C149.996 36.3268 150.206 36.3068 150.256 36.2968C150.356 36.2668 150.416 36.2068 150.436 36.1068C150.476 35.8568 150.506 35.3268 150.506 34.4968V31.7568C150.506 30.9368 150.486 30.3968 150.436 30.1468C150.416 30.0468 150.356 29.9768 150.256 29.9568C150.206 29.9468 149.996 29.9268 149.646 29.9068L149.596 29.8568V29.5068L149.646 29.4568C150.186 29.4768 150.716 29.4868 151.246 29.4868C151.596 29.4868 152.136 29.4768 152.846 29.4568L152.896 29.5068V29.8568L152.846 29.9068C152.496 29.9268 152.286 29.9468 152.236 29.9568C152.136 29.9868 152.076 30.0468 152.056 30.1468C152.016 30.3968 151.986 30.9268 151.986 31.7568V35.6568L155.226 29.4468C155.676 29.4668 155.986 29.4768 156.146 29.4768C156.266 29.4768 156.736 29.4668 157.566 29.4468L157.616 29.4968V29.8468L157.556 29.8968C157.206 29.9168 156.996 29.9368 156.946 29.9468C156.846 29.9768 156.786 30.0368 156.766 30.1368C156.726 30.3868 156.696 30.9168 156.696 31.7468V34.4868C156.696 35.3068 156.716 35.8468 156.766 36.0968C156.786 36.1968 156.846 36.2568 156.946 36.2868C156.996 36.2968 157.196 36.3168 157.556 36.3368L157.606 36.3868V36.7468L157.626 36.7568Z" fill="#1B1660"/>
</svg>
