<svg width="209" height="46" viewBox="0 0 209 46" fill="none" xmlns="http://www.w3.org/2000/svg">
<path fill-rule="evenodd" clip-rule="evenodd" d="M34.9062 2.08621C34.9062 2.08621 36.7362 1.93621 36.1762 5.64621H33.1162C33.5262 1.92621 34.8962 2.08621 34.8962 2.08621H34.9062Z" fill="#254F97"/>
<path fill-rule="evenodd" clip-rule="evenodd" d="M2.32576 44.5262C2.32576 44.5262 0.495757 44.6762 1.05576 40.9662H4.11576C3.58576 44.8262 2.33576 44.5262 2.33576 44.5262H2.32576Z" fill="#254F97"/>
<path fill-rule="evenodd" clip-rule="evenodd" d="M31.8459 6.68605C31.8459 6.68605 30.8959 13.1961 33.5359 23.1561C33.5359 23.1561 37.7059 37.9461 31.3859 44.6961H3.83591C3.83591 44.6961 5.11591 43.5361 5.43591 39.9261C5.43591 39.9261 6.38591 33.4161 3.74591 23.4561C3.74591 23.4561 -0.514088 9.17605 5.79591 1.95605H33.2459C33.2459 1.95605 32.1559 3.06606 31.8359 6.67605L31.8459 6.68605Z" fill="#254F97"/>
<path fill-rule="evenodd" clip-rule="evenodd" d="M37.0261 6.57613C37.0261 6.57613 38.3261 0.886134 34.3961 0.916134H5.59609C-1.87391 8.00613 2.48609 23.0561 2.48609 23.0561C5.32609 34.4261 4.21609 40.0361 4.21609 40.0361H0.206093C0.206093 40.0361 -1.09391 45.7261 2.83609 45.6961H31.5361C39.0461 38.8561 34.7461 23.5661 34.7461 23.5661C31.9061 12.1961 33.0161 6.57613 33.0161 6.57613H37.0261ZM34.8961 2.08613C34.8961 2.08613 36.7261 1.93613 36.1661 5.64613H33.1061C33.5161 1.92613 34.8861 2.08613 34.8861 2.08613H34.8961ZM2.32609 44.5261C2.32609 44.5261 0.496093 44.6761 1.05609 40.9661H4.11609C3.58609 44.8261 2.33609 44.5261 2.33609 44.5261H2.32609ZM31.8461 6.68613C31.8461 6.68613 30.8961 13.1961 33.5361 23.1561C33.5361 23.1561 37.7061 37.9461 31.3861 44.6961H3.83609C3.83609 44.6961 5.11609 43.5361 5.43609 39.9261C5.43609 39.9261 6.38609 33.4161 3.74609 23.4561C3.74609 23.4561 -0.513906 9.17613 5.79609 1.95613H33.2461C33.2461 1.95613 32.1561 3.06613 31.8361 6.67613L31.8461 6.68613Z" fill="#F2C34E"/>
<path d="M16.7462 34.3763C16.7462 34.3763 16.3862 34.5863 16.7862 34.9363C16.7862 34.9363 17.2662 35.2763 17.3062 35.5763C17.3062 35.5763 17.3762 35.9163 17.0462 36.2663C16.8762 36.4563 16.6462 36.6463 16.2462 36.9363C16.2462 36.9363 14.4962 37.9963 14.5562 39.2963C14.5562 39.2963 15.3062 40.3563 18.4162 40.3863H18.6362C21.7662 40.3663 22.5262 39.2963 22.5262 39.2963C22.6262 38.0163 20.8362 36.9363 20.8362 36.9363C20.4462 36.6463 20.2162 36.4563 20.0362 36.2663C19.7062 35.9163 19.7862 35.5763 19.7862 35.5763C19.8262 35.2763 20.3062 34.9363 20.3062 34.9363C20.7062 34.5863 20.4062 34.3763 20.4062 34.3763C18.6562 34.1863 18.4462 34.1863 16.7462 34.3763ZM17.4062 34.9363C17.4062 34.9363 17.9162 35.0563 18.7962 34.9163C18.8062 34.9163 17.7162 35.7863 17.4062 34.9363ZM18.8462 39.6663C18.8862 39.4063 19.1162 39.3363 19.1162 39.3363C19.2462 39.3163 19.4862 39.2863 19.5362 39.2763C21.3662 38.9063 20.9062 38.1463 20.9062 38.1463C21.2962 38.0463 21.6062 38.7863 21.6062 38.7863C20.9462 39.6463 18.8362 39.6663 18.8362 39.6663H18.8462Z" fill="#F2C34E"/>
<path fill-rule="evenodd" clip-rule="evenodd" d="M14.1262 28.3161C14.3262 27.9561 14.6362 27.4461 14.6962 26.5161C14.7362 25.9061 14.7262 25.9261 14.7162 25.5861C14.6062 24.3961 14.2262 21.9061 12.4462 17.5561C12.4462 17.5561 11.8062 16.0261 11.3662 16.3861V31.5061C11.3662 32.3061 11.8762 32.2661 11.8762 32.2661C12.9062 30.4761 14.0062 30.6861 14.0062 30.6861C15.2062 30.7261 15.3762 31.9261 15.3762 31.9261L14.5862 31.6961C14.1162 31.6061 13.9762 31.9061 13.9762 31.9061C13.9762 31.9061 15.3162 32.3561 16.6162 33.0061C16.6162 33.0061 16.5862 30.0361 14.1862 29.8561C13.8162 29.8261 13.3562 29.9661 13.4262 29.9461C13.4262 29.9461 13.2262 29.3261 14.0962 28.3261L14.1262 28.3161ZM12.1262 19.5061C12.2462 19.4761 12.3062 19.6361 12.3062 19.6361C12.3062 19.6361 13.2062 21.4061 13.7962 23.9961C14.4762 26.9861 13.4962 28.1961 13.4962 28.1961C12.5062 29.5061 12.8162 30.2061 12.8162 30.2061C12.4162 30.4261 12.1162 30.9161 12.1162 30.9161V19.5061H12.1262Z" fill="#F2C34E"/>
<path d="M18.996 34.3363C18.926 34.1363 18.766 33.7263 18.916 32.5663H18.936C19.166 32.5363 20.976 32.0763 20.976 25.9863C20.976 25.9863 20.546 26.1563 20.036 26.0663C20.286 25.2563 21.106 24.5563 21.106 24.5563C21.106 24.5563 21.526 13.8263 20.036 11.3663C19.706 11.6463 19.316 11.7163 19.316 11.7163C19.336 11.2963 19.776 10.4263 19.776 10.4263C19.776 10.4263 18.956 5.89625 17.626 6.29625C17.626 6.29625 18.086 7.54625 17.256 10.6563C17.256 10.6563 16.446 13.5963 16.276 15.6163C16.276 15.6163 16.046 17.8163 16.126 19.3663C16.126 19.3663 16.766 20.2063 16.826 20.7063C16.486 20.7963 16.016 20.7063 16.016 20.7063C16.016 20.7063 15.726 26.9463 16.646 30.3463C16.646 30.3463 17.056 32.1663 18.166 32.5463H18.196C18.356 33.7163 18.196 34.1163 18.116 34.3263H18.986L18.996 34.3363ZM18.736 31.8663C18.736 31.8663 18.696 32.2163 18.556 32.2163C18.556 32.2163 18.416 32.2163 18.396 31.8663C18.226 26.6763 18.306 20.7763 18.306 20.7763C18.306 18.2863 18.526 14.5963 18.566 13.9563C18.606 14.5963 18.826 18.2863 18.826 20.7763C18.826 28.4063 18.846 28.3163 18.736 31.8663Z" fill="#F2C34E"/>
<path fill-rule="evenodd" clip-rule="evenodd" d="M23.7359 29.9362C23.8059 29.9662 23.3459 29.8262 22.9759 29.8462C20.5859 30.0262 20.5459 32.9962 20.5459 32.9962C21.8459 32.3462 23.1859 31.8962 23.1859 31.8962C23.1859 31.8962 23.0459 31.5962 22.5759 31.6862L21.7859 31.9162C21.7859 31.9162 21.9659 30.7262 23.1559 30.6762C23.1559 30.6762 24.2559 30.4662 25.2859 32.2562C25.2859 32.2562 25.7959 32.2962 25.7959 31.4962V16.3762C25.3559 16.0062 24.7159 17.5462 24.7159 17.5462C22.9359 21.8862 22.5559 24.3762 22.4459 25.5762C22.4359 25.9162 22.4259 25.8962 22.4659 26.5062C22.5259 27.4362 22.8259 27.9462 23.0359 28.3062C23.9059 29.3062 23.7059 29.9262 23.7059 29.9262L23.7359 29.9362ZM25.0659 30.6662V30.9162C25.0659 30.9162 24.7659 30.4262 24.3659 30.2062C24.3659 30.2062 24.6759 29.5062 23.6859 28.1962C23.6859 28.1962 22.7159 26.9862 23.3859 23.9962C23.9759 21.4062 24.8759 19.6362 24.8759 19.6362C24.8759 19.6362 24.9359 19.4762 25.0559 19.5062V30.6662H25.0659Z" fill="#F2C34E"/>
<path d="M55.7153 18.5963C55.5953 19.1063 55.4253 19.9463 55.2153 21.1063L55.1653 21.1463H54.8353L54.7853 21.1063L54.7553 20.0563C54.7453 19.5863 54.6853 19.2963 54.5853 19.1863C54.5253 19.1263 54.4553 19.0863 54.3753 19.0663C54.2553 19.0363 53.9553 19.0263 53.4753 19.0163L52.5853 18.9963H51.1353C50.8153 18.9963 50.0953 18.9963 48.9953 19.0163H47.2453L47.1953 18.9963V18.6363L47.2453 18.5863C47.5953 18.5663 47.7953 18.5463 47.8553 18.5363C47.9553 18.5063 48.0153 18.4463 48.0353 18.3463C48.0753 18.0963 48.1053 17.5663 48.1053 16.7363V13.9963C48.1053 13.1763 48.0853 12.6363 48.0353 12.3863C48.0153 12.2863 47.9553 12.2163 47.8553 12.1963C47.8053 12.1863 47.6053 12.1663 47.2453 12.1463L47.1953 12.0963V11.7463L47.2453 11.6963C47.6253 11.7163 48.1653 11.7263 48.8453 11.7263C49.5253 11.7263 50.0553 11.7163 50.4453 11.6963L50.4953 11.7463V12.0963L50.4353 12.1463C50.0853 12.1663 49.8853 12.1863 49.8253 12.1963C49.7253 12.2263 49.6653 12.2863 49.6453 12.3863C49.6053 12.6363 49.5753 13.1663 49.5753 13.9963V16.7763C49.5753 17.4763 49.5953 18.0463 49.6253 18.4763H52.7753C52.8053 18.0463 52.8253 17.4763 52.8253 16.7763V13.9963C52.8253 13.1763 52.8053 12.6363 52.7553 12.3863C52.7353 12.2863 52.6753 12.2163 52.5753 12.1963C52.5253 12.1863 52.3253 12.1663 51.9653 12.1463L51.9053 12.0963V11.7463L51.9553 11.6963C52.2453 11.7163 52.7553 11.7263 53.4853 11.7263C54.2153 11.7263 54.7753 11.7163 55.1553 11.6963L55.2053 11.7463V12.0963L55.1553 12.1463C54.7953 12.1663 54.5953 12.1863 54.5453 12.1963C54.4453 12.2263 54.3853 12.2863 54.3653 12.3863C54.3253 12.6363 54.2953 13.1663 54.2953 13.9963V16.7563C54.2953 17.6863 54.3153 18.2263 54.3453 18.3563C54.3553 18.4163 54.3753 18.4463 54.4053 18.4563C54.4553 18.4763 54.5953 18.4863 54.8153 18.4863C55.1153 18.4863 55.4053 18.4663 55.6653 18.4363L55.7053 18.5963H55.7153Z" fill="#1B1660"/>
<path d="M62.0848 17.2863C62.0048 17.7863 61.9748 18.3563 61.9748 18.9963L61.9248 19.0463L58.1548 19.0163C57.5248 19.0163 57.0848 19.0263 56.8248 19.0463L56.7748 18.9963V18.8463L56.8048 18.7863C57.0648 18.6263 57.1948 18.5163 57.2148 18.4763C57.2448 18.4163 57.2648 18.1863 57.2748 17.7863L57.2948 16.6263V13.9963C57.2948 13.1763 57.2748 12.6363 57.2248 12.3863C57.2048 12.2863 57.1448 12.2163 57.0448 12.1963C56.9948 12.1863 56.7948 12.1663 56.4348 12.1463L56.3848 12.0963V11.7463L56.4348 11.6963C56.7848 11.7163 57.3248 11.7263 58.0548 11.7263C58.7048 11.7263 59.9348 11.7163 61.7648 11.6963L61.8248 11.7363L61.7548 12.3163C61.7348 12.4963 61.7148 12.6563 61.7048 12.7863L61.6648 13.2663L61.6148 13.3263H61.3148L61.2648 13.2763C61.2648 12.8063 61.2348 12.5363 61.1848 12.4763C61.1448 12.4263 60.9648 12.3863 60.6248 12.3663C60.2948 12.3363 59.9948 12.3263 59.7448 12.3263C59.4448 12.3263 59.1448 12.3363 58.8348 12.3663C58.7948 12.7263 58.7748 13.2263 58.7748 13.8763V14.9463C59.0448 14.9663 59.2648 14.9663 59.4348 14.9663H60.1148C60.4348 14.9663 60.6148 14.9363 60.6548 14.8863C60.7048 14.8263 60.7448 14.5963 60.7648 14.1863L60.8148 14.1363H61.1348L61.1848 14.1863C61.1748 14.5763 61.1648 14.9263 61.1648 15.2463C61.1648 15.5963 61.1648 15.9763 61.1848 16.3863L61.1348 16.4363H60.7848L60.7348 16.3863C60.7348 15.9863 60.7048 15.7563 60.6548 15.6763C60.6048 15.5963 60.4348 15.5563 60.1548 15.5263C59.9448 15.5063 59.7148 15.4963 59.4848 15.4963C59.2348 15.4963 58.9948 15.5063 58.7748 15.5263V17.1063C58.7748 17.5563 58.7748 17.9963 58.8048 18.4163H59.5148C60.5248 18.4163 61.1448 18.3763 61.3748 18.2963C61.4148 18.2863 61.4448 18.2663 61.4548 18.2363C61.4848 18.1863 61.5248 18.0863 61.5548 17.9263L61.6748 17.2863L61.7248 17.2263H62.0448L62.1048 17.2763L62.0848 17.2863Z" fill="#1B1660"/>
<path d="M70.9952 18.9961L70.9452 19.0461C70.6052 19.0261 70.0752 19.0161 69.3452 19.0161C68.6152 19.0161 68.0752 19.0261 67.7452 19.0461L67.6952 18.9961V18.6461L67.7552 18.5961C68.1052 18.5761 68.3052 18.5561 68.3652 18.5461C68.4652 18.5161 68.5252 18.4561 68.5452 18.3561C68.5852 18.1061 68.6152 17.5761 68.6152 16.7461V15.4961C68.4352 15.4761 67.8752 15.4761 66.9352 15.4761C66.0652 15.4761 65.4952 15.4761 65.2152 15.4961V16.7461C65.2152 17.5661 65.2352 18.1061 65.2852 18.3561C65.3052 18.4561 65.3652 18.5161 65.4652 18.5461C65.5152 18.5561 65.7152 18.5761 66.0752 18.5961L66.1252 18.6461V18.9961L66.0752 19.0461C65.7252 19.0261 65.1952 19.0161 64.4752 19.0161C63.7552 19.0161 63.1952 19.0261 62.8752 19.0461L62.8252 18.9961V18.6461L62.8752 18.5961C63.2252 18.5761 63.4252 18.5561 63.4852 18.5461C63.5852 18.5161 63.6452 18.4561 63.6652 18.3561C63.7052 18.1061 63.7352 17.5761 63.7352 16.7461V14.0061C63.7352 13.1861 63.7152 12.6461 63.6652 12.3961C63.6452 12.2961 63.5852 12.2261 63.4852 12.2061C63.4352 12.1961 63.2352 12.1761 62.8752 12.1561L62.8252 12.1061V11.7561L62.8752 11.7061C63.2052 11.7261 63.7352 11.7361 64.4752 11.7361C65.2152 11.7361 65.7552 11.7261 66.0752 11.7061L66.1252 11.7561V12.1161L66.0752 12.1661C65.7252 12.1861 65.5252 12.2061 65.4652 12.2161C65.3652 12.2461 65.3052 12.3061 65.2852 12.4061C65.2452 12.6561 65.2152 13.1861 65.2152 14.0161V14.8761C65.5852 14.8961 66.0852 14.9061 66.7252 14.9061C67.7352 14.9061 68.3652 14.8961 68.6152 14.8761V14.0161C68.6152 13.1961 68.5952 12.6561 68.5452 12.4061C68.5252 12.3061 68.4652 12.2361 68.3652 12.2161C68.3152 12.2061 68.1152 12.1861 67.7552 12.1661L67.6952 12.1161V11.7661L67.7452 11.7161C68.0752 11.7361 68.6152 11.7461 69.3452 11.7461C70.0752 11.7461 70.6352 11.7361 70.9452 11.7161L70.9952 11.7661V12.1261L70.9452 12.1761C70.5852 12.1961 70.3852 12.2161 70.3352 12.2261C70.2352 12.2561 70.1752 12.3161 70.1552 12.4161C70.1152 12.6661 70.0852 13.1961 70.0852 14.0261V16.7661C70.0852 17.5861 70.1052 18.1261 70.1552 18.3761C70.1752 18.4761 70.2352 18.5361 70.3352 18.5661C70.3852 18.5761 70.5852 18.5961 70.9452 18.6161L70.9952 18.6661V19.0161V18.9961Z" fill="#1B1660"/>
<path d="M78.1949 11.7363C78.1549 11.9963 78.1349 12.2563 78.1249 12.5263V13.3963L78.0649 13.4463H77.7349L77.6749 13.3963C77.6549 12.9563 77.6349 12.6963 77.6149 12.6163C77.5749 12.4763 77.4649 12.3963 77.2849 12.3763C77.2149 12.3663 76.8949 12.3563 76.3149 12.3563H75.6249C75.6249 12.4763 75.6149 12.9563 75.6149 13.7963V16.7363C75.6149 17.5563 75.6349 18.0963 75.6849 18.3463C75.7049 18.4463 75.7649 18.5063 75.8649 18.5363C75.9149 18.5463 76.1149 18.5663 76.4749 18.5863L76.5249 18.6363V18.9863L76.4749 19.0363C76.1349 19.0163 75.6049 19.0063 74.8749 19.0063C74.1449 19.0063 73.6049 19.0163 73.2749 19.0363L73.2249 18.9863V18.6363L73.2749 18.5863C73.6249 18.5663 73.8249 18.5463 73.8849 18.5363C73.9849 18.5063 74.0449 18.4463 74.0649 18.3463C74.1049 18.0963 74.1349 17.5663 74.1349 16.7363V13.7963C74.1349 12.9463 74.1349 12.4663 74.1149 12.3563H73.3749C72.7549 12.3563 72.3949 12.3763 72.2949 12.4163C72.2449 12.4363 72.2049 12.4663 72.1849 12.4963C72.1549 12.5563 72.1249 12.6663 72.1049 12.8263C72.0849 13.0063 72.0649 13.1963 72.0549 13.3963L72.0049 13.4463H71.6749L71.6149 13.3963V12.5063C71.6049 12.2563 71.5849 11.9963 71.5449 11.7363L71.5949 11.6863C71.7949 11.7263 72.5449 11.7363 73.8249 11.7363H75.9249C77.1049 11.7363 77.8549 11.7163 78.1549 11.6863L78.2049 11.7363H78.1949Z" fill="#1B1660"/>
<path d="M84.6151 13.3263C84.6151 14.0363 84.3751 14.5963 83.8851 14.9963C83.3951 15.3963 82.8551 15.5963 82.2351 15.5963C82.0251 15.5963 81.8151 15.5763 81.6051 15.5263C81.5751 15.4363 81.5151 15.3063 81.4251 15.1563L81.5351 15.0463C81.6851 15.0963 81.8151 15.1163 81.9351 15.1163C82.2851 15.1163 82.5651 14.9963 82.7751 14.7463C82.9851 14.4963 83.0951 14.1563 83.0951 13.7063C83.0951 12.7463 82.6651 12.2563 81.7951 12.2563C81.6951 12.2563 81.4851 12.2763 81.1751 12.3163C81.1451 12.3963 81.1251 12.9663 81.1251 14.0063V16.7463C81.1251 17.5663 81.1451 18.1063 81.1951 18.3563C81.2151 18.4563 81.2751 18.5163 81.3751 18.5463C81.4051 18.5463 81.6451 18.5663 82.0851 18.5963L82.1451 18.6563V18.9963L82.0951 19.0463C81.6251 19.0263 81.0551 19.0163 80.3951 19.0163C79.6551 19.0163 79.1151 19.0263 78.7951 19.0463L78.7451 18.9963V18.6463L78.8051 18.5863C79.1551 18.5663 79.3551 18.5463 79.4051 18.5363C79.5051 18.5063 79.5651 18.4463 79.5851 18.3463C79.6251 18.0963 79.6551 17.5663 79.6551 16.7363V13.9963C79.6551 13.1763 79.6351 12.6363 79.5851 12.3863C79.5651 12.2863 79.5051 12.2163 79.4051 12.1963C79.3551 12.1863 79.1551 12.1663 78.7951 12.1463L78.7451 12.0863V11.7463L78.8051 11.6963C79.1451 11.7163 79.6651 11.7263 80.3651 11.7263C80.6551 11.7263 81.0751 11.7263 81.6151 11.7063C82.1551 11.6863 82.4751 11.6863 82.5551 11.6863C83.5051 11.6863 84.1151 11.9263 84.4051 12.4063C84.5551 12.6563 84.6251 12.9563 84.6251 13.3063L84.6151 13.3263Z" fill="#1B1660"/>
<path d="M95.6149 18.5863C95.4849 19.1263 95.3149 19.9663 95.1149 21.1063L95.0649 21.1463H94.7349L94.6849 21.1063L94.6549 20.0663C94.6449 19.5863 94.5849 19.2963 94.4849 19.1963C94.4249 19.1363 94.3549 19.0963 94.2749 19.0763C94.1649 19.0563 93.8649 19.0363 93.3749 19.0263L92.5949 19.0063L89.5249 19.0263C89.1049 19.0263 88.8649 19.1663 88.8049 19.4363C88.7749 19.5763 88.7549 20.1263 88.7249 21.1063L88.6749 21.1463H88.3449L88.2949 21.1063L88.1049 20.0863C88.0649 19.8763 88.0249 19.6463 87.9749 19.4163L87.7949 18.5763L87.8349 18.4263C88.1249 18.4463 88.3349 18.4663 88.4749 18.4663C88.5249 18.4663 88.5949 18.4663 88.6949 18.4463C88.8449 18.2463 89.0049 17.9963 89.1849 17.7063L92.4449 12.6063C92.4949 12.5163 92.5349 12.4563 92.5349 12.4263C92.5349 12.3263 92.0749 12.2263 91.1549 12.1263L91.1049 12.0763V11.7163L91.1549 11.6863C91.4749 11.7063 92.0849 11.7163 92.9649 11.7163C93.8449 11.7163 94.4449 11.7063 94.6749 11.6863L94.7449 11.7263C94.7149 12.9363 94.6949 13.6963 94.6949 14.0163V16.2463C94.6949 16.8963 94.7149 17.6363 94.7449 18.4663H94.8949C95.0249 18.4663 95.2549 18.4663 95.5849 18.4263L95.6249 18.5763L95.6149 18.5863ZM93.2049 16.5663V14.9963L93.1849 12.4563H93.0649C92.9449 12.6463 92.7549 12.9463 92.5149 13.3463L89.5749 18.4963H93.1849C93.2049 17.8663 93.2149 17.2263 93.2149 16.5763L93.2049 16.5663Z" fill="#1B1660"/>
<path d="M104.305 15.1862C104.305 16.4662 103.935 17.4662 103.195 18.1862C102.475 18.8962 101.485 19.2462 100.235 19.2462C99.0553 19.2462 98.1253 18.9162 97.4553 18.2462C96.7853 17.5762 96.4453 16.6562 96.4453 15.4662C96.4453 13.8062 97.0753 12.6562 98.3453 12.0162C98.9253 11.7262 99.6353 11.5762 100.475 11.5762C101.685 11.5762 102.615 11.8962 103.295 12.5262C103.975 13.1662 104.315 14.0562 104.315 15.1762L104.305 15.1862ZM102.705 15.4562C102.705 14.4562 102.505 13.6562 102.105 13.0662C101.705 12.4762 101.115 12.1862 100.335 12.1862C99.3053 12.1862 98.6253 12.6462 98.2953 13.5662C98.1253 14.0362 98.0353 14.5762 98.0353 15.1562C98.0353 16.2262 98.2353 17.0662 98.6253 17.6862C99.0353 18.3262 99.6453 18.6462 100.455 18.6462C101.435 18.6462 102.105 18.1562 102.445 17.1862C102.625 16.6762 102.715 16.0962 102.715 15.4462L102.705 15.4562Z" fill="#1B1660"/>
<path d="M112.135 18.1062L111.895 18.6362C111.165 19.0362 110.355 19.2362 109.445 19.2362C107.645 19.2362 106.405 18.5862 105.745 17.2862C105.435 16.6862 105.285 16.0362 105.285 15.3262C105.285 14.1962 105.665 13.2862 106.415 12.6162C107.185 11.9162 108.235 11.5762 109.575 11.5762C110.425 11.5762 111.245 11.7262 112.055 12.0362L112.125 12.1162C112.005 12.5962 111.935 13.1462 111.905 13.7862L111.855 13.8362H111.545L111.495 13.7762C111.485 13.3562 111.465 13.0662 111.435 12.9062C111.005 12.4162 110.375 12.1762 109.565 12.1762C108.755 12.1762 108.065 12.4462 107.585 12.9762C107.105 13.5062 106.865 14.2362 106.865 15.1462C106.865 16.3762 107.295 17.3262 108.145 17.9862C108.595 18.3362 109.205 18.5162 109.965 18.5162C110.655 18.5162 111.335 18.3362 111.995 17.9862L112.125 18.1062H112.135Z" fill="#1B1660"/>
<path d="M120.205 19.0061L120.155 19.0461C119.565 19.0261 119.015 19.0161 118.505 19.0161C117.775 19.0161 117.265 19.0261 116.945 19.0461L116.895 19.0061V18.6461L116.945 18.5961C117.295 18.5761 117.495 18.5561 117.555 18.5461C117.655 18.5161 117.715 18.4561 117.735 18.3561C117.775 18.1061 117.805 17.5761 117.805 16.7461V14.9961L117.785 12.4561H117.665C117.485 12.7461 117.215 13.1861 116.865 13.7761L115.945 15.3161C115.195 16.5661 114.725 17.4261 114.525 17.8861C114.435 18.0961 114.395 18.2261 114.395 18.2961C114.395 18.4161 114.495 18.4961 114.705 18.5361C114.855 18.5661 114.995 18.5861 115.135 18.6061L115.185 18.6561V19.0161L115.135 19.0561C114.635 19.0361 114.165 19.0261 113.725 19.0261C113.495 19.0261 113.115 19.0361 112.575 19.0561L112.525 19.0161V18.6561L112.575 18.6061L112.905 18.5461C113.005 18.5261 113.085 18.4961 113.145 18.4661C113.255 18.4061 113.415 18.2261 113.625 17.9261C114.055 17.3061 114.405 16.7861 114.675 16.3661L117.095 12.5461C117.095 12.5461 117.135 12.4661 117.145 12.4461C117.145 12.3661 116.685 12.2661 115.765 12.1561L115.715 12.1061V11.7361L115.765 11.7061C115.935 11.7161 116.535 11.7261 117.575 11.7361C118.405 11.7361 118.975 11.7361 119.285 11.7061L119.355 11.7461C119.355 11.8561 119.345 12.2061 119.335 12.7961C119.315 13.6561 119.305 14.3961 119.305 14.9961V16.7461C119.305 17.5661 119.335 18.1061 119.375 18.3561C119.395 18.4561 119.455 18.5161 119.555 18.5461C119.605 18.5561 119.805 18.5761 120.165 18.5961L120.215 18.6461V19.0061H120.205Z" fill="#1B1660"/>
<path d="M124.175 18.9961L124.125 19.0461C123.775 19.0261 123.245 19.0161 122.525 19.0161C121.805 19.0161 121.275 19.0261 120.925 19.0461L120.875 18.9961V18.6461L120.925 18.5961C121.275 18.5761 121.475 18.5561 121.535 18.5461C121.635 18.5161 121.695 18.4561 121.715 18.3561C121.755 18.1061 121.785 17.5761 121.785 16.7461V14.0061C121.785 13.1861 121.765 12.6461 121.715 12.3961C121.695 12.2961 121.635 12.2261 121.535 12.2061C121.485 12.1961 121.285 12.1761 120.925 12.1561L120.875 12.1061V11.7561L120.925 11.7061C121.255 11.7261 121.785 11.7361 122.525 11.7361C123.265 11.7361 123.785 11.7261 124.115 11.7061L124.165 11.7561V12.1061L124.115 12.1561C123.765 12.1761 123.565 12.1961 123.505 12.2061C123.405 12.2361 123.345 12.2961 123.325 12.3961C123.285 12.6461 123.255 13.1761 123.255 14.0061V16.7461C123.255 17.5661 123.275 18.1061 123.325 18.3561C123.345 18.4561 123.405 18.5161 123.505 18.5461C123.555 18.5561 123.755 18.5761 124.115 18.5961L124.165 18.6461V18.9961H124.175Z" fill="#1B1660"/>
<path d="M132.675 18.5863C132.545 19.1263 132.375 19.9663 132.175 21.1063L132.125 21.1463H131.795L131.745 21.1063L131.715 20.0663C131.705 19.5863 131.645 19.2963 131.545 19.1963C131.485 19.1363 131.415 19.0963 131.335 19.0763C131.225 19.0563 130.925 19.0363 130.435 19.0263L129.655 19.0063L126.585 19.0263C126.165 19.0263 125.925 19.1663 125.865 19.4363C125.835 19.5763 125.815 20.1263 125.785 21.1063L125.735 21.1463H125.405L125.355 21.1063L125.165 20.0863C125.125 19.8763 125.085 19.6463 125.035 19.4163L124.855 18.5763L124.895 18.4263C125.185 18.4463 125.395 18.4663 125.535 18.4663C125.585 18.4663 125.655 18.4663 125.755 18.4463C125.905 18.2463 126.065 17.9963 126.245 17.7063L129.505 12.6063C129.555 12.5163 129.595 12.4563 129.595 12.4263C129.595 12.3263 129.135 12.2263 128.215 12.1263L128.165 12.0763V11.7163L128.215 11.6863C128.535 11.7063 129.145 11.7163 130.025 11.7163C130.905 11.7163 131.505 11.7063 131.735 11.6863L131.805 11.7263C131.775 12.9363 131.755 13.6963 131.755 14.0163V16.2463C131.755 16.8963 131.775 17.6363 131.805 18.4663H131.955C132.085 18.4663 132.315 18.4663 132.645 18.4263L132.685 18.5763L132.675 18.5863ZM130.265 16.5663V14.9963L130.245 12.4563H130.125C130.005 12.6463 129.815 12.9463 129.575 13.3463L126.635 18.4963H130.245C130.265 17.8663 130.275 17.2263 130.275 16.5763L130.265 16.5663Z" fill="#1B1660"/>
<path d="M144.646 19.0063L144.596 19.0463C143.946 19.0263 143.616 19.0163 143.616 19.0163L142.796 19.0363C142.646 19.0363 142.546 19.0063 142.476 18.9363C142.266 18.7263 142.006 18.4063 141.696 17.9863L140.136 15.8563C139.986 15.6563 139.876 15.5563 139.806 15.5563C139.786 15.5563 139.756 15.5563 139.716 15.5763V16.7463C139.716 17.5663 139.736 18.1063 139.786 18.3563C139.806 18.4563 139.866 18.5163 139.966 18.5463C140.016 18.5563 140.216 18.5763 140.546 18.5963L140.596 18.6463V19.0063L140.546 19.0463C139.586 19.0263 139.066 19.0163 138.986 19.0163C138.876 19.0163 138.656 19.0163 138.316 19.0363C137.946 19.0363 137.656 19.0463 137.446 19.0463L137.396 19.0063V18.6463L137.446 18.5963C137.776 18.5763 137.976 18.5563 138.026 18.5463C138.126 18.5163 138.186 18.4563 138.206 18.3563C138.246 18.1063 138.276 17.5763 138.276 16.7463V15.5763C138.276 15.5763 138.216 15.5563 138.186 15.5563C138.106 15.5563 137.996 15.6563 137.856 15.8563L136.296 17.9863C135.986 18.4163 135.726 18.7263 135.516 18.9363C135.446 19.0063 135.346 19.0363 135.196 19.0363L134.376 19.0163C134.306 19.0163 133.976 19.0263 133.396 19.0463L133.346 19.0063V18.6463L133.406 18.5863C133.626 18.5463 133.786 18.5163 133.886 18.4663C134.006 18.4163 134.286 18.1463 134.736 17.6363C135.216 17.0963 135.526 16.7463 135.656 16.5763L136.666 15.2863C136.926 14.9563 137.086 14.7463 137.156 14.6363C136.966 14.4263 136.596 14.0663 136.056 13.5463L135.756 13.2663C135.596 13.1163 135.346 12.8863 135.006 12.5863C134.636 12.2863 134.216 12.1263 133.726 12.0963L133.686 12.0463V11.7163L133.736 11.6663C133.996 11.6863 134.316 11.7063 134.676 11.7063C135.076 11.7063 135.466 11.6963 135.846 11.6763L135.906 11.7263V12.0163L135.846 12.0663C135.846 12.0663 135.796 12.1163 135.796 12.1563C135.796 12.2363 135.896 12.4063 136.106 12.6663C136.336 12.9663 136.686 13.4063 137.156 13.9763C137.706 14.6163 138.076 14.9963 138.266 15.1263V13.9663C138.266 13.1463 138.246 12.6063 138.196 12.3563C138.176 12.2563 138.116 12.1863 138.016 12.1663C137.966 12.1563 137.766 12.1363 137.436 12.1163L137.386 12.0663V11.7163L137.446 11.6663C137.896 11.6863 138.406 11.6963 138.966 11.6963C139.496 11.6963 140.016 11.6863 140.526 11.6663L140.576 11.7163V12.0663L140.526 12.1163C140.196 12.1363 139.996 12.1563 139.946 12.1663C139.846 12.1963 139.786 12.2563 139.766 12.3563C139.726 12.6063 139.696 13.1363 139.696 13.9663V15.1263C139.886 14.9963 140.256 14.6163 140.806 13.9763C141.056 13.6963 141.406 13.2563 141.856 12.6663C142.056 12.3963 142.166 12.2263 142.166 12.1563C142.166 12.1163 142.146 12.0863 142.116 12.0663L142.056 12.0163V11.7263L142.116 11.6763C142.496 11.6963 142.886 11.7063 143.286 11.7063C143.646 11.7063 143.966 11.6963 144.226 11.6663L144.276 11.7163V12.0463L144.236 12.0963C143.746 12.1263 143.306 12.2963 142.916 12.6163C142.726 12.7763 142.386 13.0763 141.906 13.5363C141.366 14.0563 140.996 14.4163 140.806 14.6263C140.876 14.7263 141.046 14.9463 141.296 15.2763L142.306 16.5663C142.436 16.7363 142.736 17.0863 143.226 17.6263C143.676 18.1263 143.956 18.4063 144.076 18.4563C144.176 18.4963 144.336 18.5363 144.556 18.5763L144.616 18.6363V18.9963L144.646 19.0063Z" fill="#1B1660"/>
<path d="M151.015 17.2863C150.935 17.7863 150.905 18.3563 150.905 18.9963L150.855 19.0463L147.085 19.0163C146.455 19.0163 146.015 19.0263 145.755 19.0463L145.705 18.9963V18.8463L145.735 18.7863C145.995 18.6263 146.125 18.5163 146.145 18.4763C146.175 18.4163 146.195 18.1863 146.205 17.7863L146.225 16.6263V13.9963C146.225 13.1763 146.205 12.6363 146.155 12.3863C146.135 12.2863 146.075 12.2163 145.975 12.1963C145.925 12.1863 145.725 12.1663 145.365 12.1463L145.315 12.0963V11.7463L145.365 11.6963C145.715 11.7163 146.255 11.7263 146.985 11.7263C147.635 11.7263 148.865 11.7163 150.695 11.6963L150.755 11.7363L150.685 12.3163C150.665 12.4963 150.645 12.6563 150.635 12.7863L150.595 13.2663L150.545 13.3263H150.245L150.195 13.2763C150.195 12.8063 150.165 12.5363 150.115 12.4763C150.075 12.4263 149.895 12.3863 149.555 12.3663C149.225 12.3363 148.925 12.3263 148.675 12.3263C148.375 12.3263 148.075 12.3363 147.765 12.3663C147.725 12.7263 147.705 13.2263 147.705 13.8763V14.9463C147.975 14.9663 148.195 14.9663 148.365 14.9663H149.045C149.365 14.9663 149.545 14.9363 149.585 14.8863C149.635 14.8263 149.675 14.5963 149.695 14.1863L149.745 14.1363H150.065L150.115 14.1863C150.105 14.5763 150.095 14.9263 150.095 15.2463C150.095 15.5963 150.095 15.9763 150.115 16.3863L150.065 16.4363H149.715L149.665 16.3863C149.665 15.9863 149.635 15.7563 149.585 15.6763C149.535 15.5963 149.365 15.5563 149.085 15.5263C148.875 15.5063 148.645 15.4963 148.415 15.4963C148.165 15.4963 147.925 15.5063 147.705 15.5263V17.1063C147.705 17.5563 147.705 17.9963 147.735 18.4163H148.445C149.455 18.4163 150.075 18.3763 150.305 18.2963C150.345 18.2863 150.375 18.2663 150.385 18.2363C150.415 18.1863 150.455 18.0863 150.485 17.9263L150.605 17.2863L150.655 17.2263H150.975L151.035 17.2763L151.015 17.2863Z" fill="#1B1660"/>
<path d="M159.915 18.9961L159.865 19.0461C159.525 19.0261 158.995 19.0161 158.265 19.0161C157.535 19.0161 156.995 19.0261 156.665 19.0461L156.615 18.9961V18.6461L156.675 18.5961C157.025 18.5761 157.225 18.5561 157.285 18.5461C157.385 18.5161 157.445 18.4561 157.465 18.3561C157.505 18.1061 157.535 17.5761 157.535 16.7461V15.4961C157.355 15.4761 156.795 15.4761 155.855 15.4761C154.985 15.4761 154.415 15.4761 154.135 15.4961V16.7461C154.135 17.5661 154.155 18.1061 154.205 18.3561C154.225 18.4561 154.285 18.5161 154.385 18.5461C154.435 18.5561 154.635 18.5761 154.995 18.5961L155.045 18.6461V18.9961L154.995 19.0461C154.645 19.0261 154.115 19.0161 153.395 19.0161C152.675 19.0161 152.115 19.0261 151.795 19.0461L151.745 18.9961V18.6461L151.795 18.5961C152.145 18.5761 152.345 18.5561 152.405 18.5461C152.505 18.5161 152.565 18.4561 152.585 18.3561C152.625 18.1061 152.655 17.5761 152.655 16.7461V14.0061C152.655 13.1861 152.635 12.6461 152.585 12.3961C152.565 12.2961 152.505 12.2261 152.405 12.2061C152.355 12.1961 152.155 12.1761 151.795 12.1561L151.745 12.1061V11.7561L151.795 11.7061C152.125 11.7261 152.655 11.7361 153.395 11.7361C154.135 11.7361 154.675 11.7261 154.995 11.7061L155.045 11.7561V12.1161L154.995 12.1661C154.645 12.1861 154.445 12.2061 154.385 12.2161C154.285 12.2461 154.225 12.3061 154.205 12.4061C154.165 12.6561 154.135 13.1861 154.135 14.0161V14.8761C154.505 14.8961 155.005 14.9061 155.645 14.9061C156.655 14.9061 157.285 14.8961 157.535 14.8761V14.0161C157.535 13.1961 157.515 12.6561 157.465 12.4061C157.445 12.3061 157.385 12.2361 157.285 12.2161C157.235 12.2061 157.035 12.1861 156.675 12.1661L156.615 12.1161V11.7661L156.665 11.7161C156.995 11.7361 157.535 11.7461 158.265 11.7461C158.995 11.7461 159.555 11.7361 159.865 11.7161L159.915 11.7661V12.1261L159.865 12.1761C159.505 12.1961 159.305 12.2161 159.255 12.2261C159.155 12.2561 159.095 12.3161 159.075 12.4161C159.035 12.6661 159.005 13.1961 159.005 14.0261V16.7661C159.005 17.5861 159.025 18.1261 159.075 18.3761C159.095 18.4761 159.155 18.5361 159.255 18.5661C159.305 18.5761 159.505 18.5961 159.865 18.6161L159.915 18.6661V19.0161V18.9961Z" fill="#1B1660"/>
<path d="M166.765 16.7861C166.765 17.5461 166.455 18.1261 165.845 18.5361C165.325 18.8861 164.655 19.0561 163.855 19.0561C163.695 19.0561 163.375 19.0561 162.905 19.0361C162.625 19.0261 162.385 19.0161 162.185 19.0161C162.055 19.0161 161.525 19.0261 160.625 19.0461L160.575 19.0061V18.6461L160.635 18.5961C160.945 18.5761 161.125 18.5561 161.185 18.5461C161.285 18.5161 161.345 18.4561 161.365 18.3561C161.405 18.1061 161.435 17.5761 161.435 16.7461V14.0061C161.435 13.1861 161.415 12.6461 161.365 12.3961C161.345 12.2961 161.285 12.2261 161.185 12.2061C161.125 12.1861 160.935 12.1661 160.625 12.1561L160.575 12.1061V11.7561L160.625 11.7061C160.925 11.7261 161.435 11.7361 162.155 11.7361C162.535 11.7361 163.065 11.7261 163.765 11.7061L163.815 11.7561V12.1061L163.765 12.1561C163.415 12.1761 163.215 12.1961 163.155 12.2061C163.055 12.2361 162.995 12.2961 162.975 12.3961C162.935 12.6461 162.905 13.1761 162.905 14.0061V14.8461C163.845 14.8461 164.525 14.8861 164.935 14.9561C166.145 15.1661 166.745 15.7861 166.745 16.7961L166.765 16.7861ZM165.195 16.8861C165.195 16.3961 165.045 16.0161 164.755 15.7461C164.495 15.5161 164.155 15.3861 163.735 15.3661C163.565 15.3661 163.285 15.3561 162.915 15.3561V18.4561C163.075 18.4761 163.275 18.4961 163.505 18.4961C163.895 18.4961 164.185 18.4661 164.365 18.4061C164.625 18.3161 164.835 18.1261 164.985 17.8461C165.115 17.6061 165.185 17.2761 165.185 16.8861H165.195Z" fill="#1B1660"/>
<path d="M54.8652 31.7362L54.8152 31.7862C54.0452 31.7662 53.5852 31.7562 53.4252 31.7562C52.7852 31.7562 52.1952 31.7662 51.6552 31.7862L51.6052 31.7362V31.4062L51.6552 31.3462L52.1052 31.3162C52.2952 31.3162 52.3952 31.2362 52.3952 31.1162C52.3952 31.0462 52.3452 30.8862 52.2452 30.6262L51.8252 29.5362C51.3452 29.5362 50.8652 29.5362 50.3652 29.5362C50.0952 29.5362 49.6952 29.5362 49.1652 29.5362L48.9352 30.1662C48.7652 30.6462 48.6752 30.9462 48.6752 31.0662C48.6752 31.1962 48.7552 31.2762 48.9152 31.2962C49.0052 31.3062 49.1852 31.3262 49.4452 31.3362L49.4952 31.3862V31.7162L49.4452 31.7662C48.8052 31.7462 48.3952 31.7362 48.2152 31.7362C48.0752 31.7362 47.7252 31.7462 47.1652 31.7662L47.1152 31.7162V31.3762L47.1752 31.3262C47.5352 31.3062 47.7452 31.2362 47.8352 31.1162C47.9152 30.9962 48.2252 30.2762 48.7552 28.9562L50.1052 25.5762C50.2052 25.3162 50.3552 24.9162 50.5652 24.3862H51.3052L54.0552 30.8462C54.1652 31.0962 54.2552 31.2362 54.3452 31.2562C54.4552 31.2962 54.6252 31.3162 54.8352 31.3162L54.8852 31.3762V31.7062L54.8652 31.7362ZM51.5752 28.9462L50.4652 26.2262L49.4052 28.9462C49.6852 28.9562 50.0552 28.9562 50.5052 28.9562C50.9552 28.9562 51.3052 28.9562 51.5752 28.9462Z" fill="#1B1660"/>
<path d="M63.195 31.3263C63.065 31.8663 62.895 32.7063 62.695 33.8463L62.645 33.8863H62.315L62.265 33.8463L62.235 32.8063C62.225 32.3263 62.165 32.0363 62.065 31.9363C62.005 31.8763 61.935 31.8363 61.855 31.8163C61.745 31.7963 61.445 31.7763 60.955 31.7663L60.175 31.7463L57.105 31.7663C56.685 31.7663 56.445 31.9063 56.385 32.1763C56.355 32.3163 56.335 32.8663 56.305 33.8463L56.255 33.8863H55.925L55.875 33.8463L55.685 32.8263C55.645 32.6163 55.605 32.3863 55.555 32.1563L55.375 31.3163L55.415 31.1663C55.705 31.1863 55.915 31.2063 56.055 31.2063C56.105 31.2063 56.175 31.2063 56.275 31.1863C56.425 30.9863 56.585 30.7363 56.765 30.4463L60.025 25.3463C60.075 25.2563 60.115 25.1963 60.115 25.1663C60.115 25.0663 59.655 24.9663 58.735 24.8663L58.685 24.8163V24.4563L58.735 24.4263C59.055 24.4463 59.665 24.4563 60.545 24.4563C61.425 24.4563 62.025 24.4463 62.255 24.4263L62.325 24.4663C62.295 25.6763 62.275 26.4363 62.275 26.7563V28.9863C62.275 29.6363 62.295 30.3763 62.325 31.2063H62.475C62.605 31.2063 62.835 31.2063 63.165 31.1663L63.205 31.3163L63.195 31.3263ZM60.785 29.3063V27.7363L60.765 25.1963H60.645C60.525 25.3863 60.335 25.6863 60.095 26.0863L57.155 31.2363H60.765C60.785 30.6063 60.795 29.9663 60.795 29.3163L60.785 29.3063Z" fill="#1B1660"/>
<path d="M69.9452 29.4163C69.9452 30.2863 69.5252 30.9563 68.6852 31.4363C68.2752 31.6663 67.7352 31.7863 67.0852 31.7863C66.8752 31.7863 66.7052 31.7863 66.5752 31.7863L65.3352 31.7663C64.8952 31.7663 64.5552 31.7763 64.3052 31.7963L64.2552 31.7463V31.5963L64.2852 31.5363C64.5452 31.3763 64.6752 31.2663 64.6952 31.2263C64.7252 31.1663 64.7452 30.9363 64.7552 30.5363L64.7752 29.3763V26.7463C64.7752 25.9263 64.7552 25.3863 64.7052 25.1363C64.6852 25.0363 64.6252 24.9663 64.5252 24.9463C64.4752 24.9363 64.2752 24.9163 63.9152 24.8963L63.8652 24.8463V24.4963L63.9152 24.4463C64.2252 24.4663 64.7552 24.4763 65.5052 24.4763C65.9852 24.4763 66.4152 24.4663 66.7952 24.4463C67.0952 24.4363 67.3552 24.4263 67.5652 24.4263C68.5252 24.4263 69.1652 24.6463 69.4652 25.0863C69.6252 25.3163 69.7052 25.5863 69.7052 25.8863C69.7052 26.3763 69.5152 26.7863 69.1252 27.1163C68.9452 27.2763 68.7552 27.3863 68.5552 27.4663C68.3252 27.5563 68.0752 27.6263 67.8052 27.6863C69.2252 27.7463 69.9452 28.3263 69.9452 29.4263V29.4163ZM68.1352 26.1363C68.1352 25.3763 67.7352 24.9963 66.9452 24.9963C66.6852 24.9963 66.4552 25.0063 66.2752 25.0363C66.2652 25.3963 66.2552 25.7363 66.2552 26.0363V27.4663C66.3352 27.4663 66.4952 27.4763 66.7352 27.4763C67.3652 27.4763 67.7752 27.2763 67.9652 26.8763C68.0752 26.6463 68.1352 26.3963 68.1352 26.1363ZM68.3552 29.5763C68.3552 28.5363 67.8152 28.0163 66.7252 28.0163C66.5852 28.0163 66.4252 28.0163 66.2552 28.0363V30.4363C66.2552 30.6963 66.2552 30.9463 66.2752 31.1963C66.4152 31.2163 66.6152 31.2363 66.8752 31.2363C67.3552 31.2363 67.7352 31.0863 67.9952 30.7763C68.2452 30.4863 68.3652 30.0863 68.3652 29.5763H68.3552Z" fill="#1B1660"/>
<path d="M78.9049 27.9262C78.9049 29.2062 78.5349 30.2062 77.7949 30.9262C77.0749 31.6362 76.0849 31.9862 74.8349 31.9862C73.6549 31.9862 72.7249 31.6562 72.0549 30.9862C71.3849 30.3162 71.0449 29.3962 71.0449 28.2062C71.0449 26.5462 71.6749 25.3962 72.9449 24.7562C73.5249 24.4662 74.2349 24.3162 75.0749 24.3162C76.2849 24.3162 77.2149 24.6362 77.8949 25.2662C78.5749 25.9062 78.9149 26.7962 78.9149 27.9162L78.9049 27.9262ZM77.3049 28.1962C77.3049 27.1962 77.1049 26.3962 76.7049 25.8062C76.3049 25.2162 75.7149 24.9262 74.9349 24.9262C73.9049 24.9262 73.2249 25.3862 72.8949 26.3062C72.7249 26.7762 72.6349 27.3162 72.6349 27.8962C72.6349 28.9662 72.8349 29.8062 73.2249 30.4262C73.6349 31.0662 74.2449 31.3862 75.0549 31.3862C76.0349 31.3862 76.7049 30.8962 77.0449 29.9262C77.2249 29.4162 77.3149 28.8362 77.3149 28.1862L77.3049 28.1962Z" fill="#1B1660"/>
<path d="M87.3648 31.7263L87.3048 31.7863C86.7848 31.7663 86.4848 31.7463 86.4048 31.7463C86.2348 31.7463 86.0848 31.7463 85.9448 31.7563C85.7448 31.7663 85.6148 31.7663 85.5548 31.7663C85.4448 31.7663 85.3448 31.7363 85.2648 31.6763C85.0748 31.5263 84.8248 31.2863 84.5248 30.9463L82.1048 28.2463V29.4763C82.1048 30.2963 82.1248 30.8363 82.1748 31.0863C82.1948 31.1863 82.2548 31.2463 82.3548 31.2763C82.4048 31.2863 82.6048 31.3063 82.9648 31.3263L83.0148 31.3763V31.7263L82.9648 31.7763C82.6148 31.7563 82.0848 31.7463 81.3648 31.7463C80.6448 31.7463 80.0848 31.7563 79.7648 31.7763L79.7148 31.7263V31.3763L79.7648 31.3263C80.1148 31.3063 80.3148 31.2863 80.3748 31.2763C80.4748 31.2463 80.5348 31.1863 80.5548 31.0863C80.5948 30.8363 80.6248 30.3063 80.6248 29.4763V26.7363C80.6248 25.9163 80.6048 25.3763 80.5548 25.1263C80.5348 25.0263 80.4748 24.9563 80.3748 24.9363C80.3248 24.9263 80.1248 24.9063 79.7648 24.8863L79.7148 24.8363V24.4863L79.7648 24.4363C80.0948 24.4563 80.6248 24.4663 81.3648 24.4663C82.1048 24.4663 82.6448 24.4563 82.9648 24.4363L83.0148 24.4863V24.8363L82.9648 24.8863C82.6148 24.9063 82.4148 24.9263 82.3548 24.9363C82.2548 24.9663 82.1948 25.0263 82.1748 25.1263C82.1348 25.3763 82.1048 25.9063 82.1048 26.7363V28.0263C82.2748 27.8563 82.6448 27.4763 83.2148 26.8963C83.5148 26.5863 83.7248 26.3663 83.8548 26.2263C84.1948 25.8463 84.4248 25.5863 84.5348 25.4363C84.7248 25.1963 84.8148 25.0263 84.8148 24.9263C84.8148 24.8863 84.7948 24.8563 84.7648 24.8363L84.7048 24.7863V24.4963L84.7648 24.4463C85.1448 24.4663 85.5048 24.4763 85.8348 24.4763C86.0648 24.4763 86.4048 24.4663 86.8548 24.4463L86.9148 24.4963V24.8463L86.8648 24.8963C86.4948 24.9063 86.2148 24.9563 86.0448 25.0363C85.8948 25.1063 85.6748 25.2663 85.3648 25.5363C85.0148 25.8263 84.5748 26.2363 84.0248 26.7663C83.8248 26.9663 83.5448 27.2263 83.2048 27.5563L86.1748 30.6363C86.5848 31.0663 86.9648 31.3063 87.3348 31.3763L87.3848 31.4263V31.7463L87.3648 31.7263Z" fill="#1B1660"/>
<path d="M95.5156 31.7362L95.4656 31.7862C94.6956 31.7662 94.2356 31.7562 94.0756 31.7562C93.4356 31.7562 92.8456 31.7662 92.3056 31.7862L92.2556 31.7362V31.4062L92.3056 31.3462L92.7556 31.3162C92.9456 31.3162 93.0456 31.2362 93.0456 31.1162C93.0456 31.0462 92.9956 30.8862 92.8956 30.6262L92.4756 29.5362C91.9956 29.5362 91.5156 29.5362 91.0156 29.5362C90.7456 29.5362 90.3456 29.5362 89.8156 29.5362L89.5856 30.1662C89.4156 30.6462 89.3256 30.9462 89.3256 31.0662C89.3256 31.1962 89.4056 31.2762 89.5656 31.2962C89.6556 31.3062 89.8356 31.3262 90.0956 31.3362L90.1456 31.3862V31.7162L90.0956 31.7662C89.4556 31.7462 89.0456 31.7362 88.8656 31.7362C88.7256 31.7362 88.3756 31.7462 87.8156 31.7662L87.7656 31.7162V31.3762L87.8256 31.3262C88.1856 31.3062 88.3956 31.2362 88.4856 31.1162C88.5656 30.9962 88.8756 30.2762 89.4056 28.9562L90.7556 25.5762C90.8556 25.3162 91.0056 24.9162 91.2156 24.3862H91.9556L94.7056 30.8462C94.8156 31.0962 94.9056 31.2362 94.9956 31.2562C95.1056 31.2962 95.2756 31.3162 95.4856 31.3162L95.5356 31.3762V31.7062L95.5156 31.7362ZM92.2256 28.9462L91.1156 26.2262L90.0556 28.9462C90.3356 28.9562 90.7056 28.9562 91.1556 28.9562C91.6056 28.9562 91.9556 28.9562 92.2256 28.9462Z" fill="#1B1660"/>
<path d="M102.635 24.4763C102.595 24.7363 102.575 24.9963 102.565 25.2663V26.1363L102.505 26.1863H102.175L102.115 26.1363C102.095 25.6963 102.075 25.4363 102.055 25.3563C102.015 25.2163 101.905 25.1363 101.725 25.1163C101.655 25.1063 101.335 25.0963 100.755 25.0963H100.065C100.065 25.2163 100.055 25.6963 100.055 26.5363V29.4763C100.055 30.2963 100.075 30.8363 100.125 31.0863C100.145 31.1863 100.205 31.2463 100.305 31.2763C100.355 31.2863 100.555 31.3063 100.915 31.3263L100.965 31.3763V31.7263L100.915 31.7763C100.575 31.7563 100.045 31.7463 99.3154 31.7463C98.5854 31.7463 98.0454 31.7563 97.7154 31.7763L97.6654 31.7263V31.3763L97.7154 31.3263C98.0654 31.3063 98.2654 31.2863 98.3254 31.2763C98.4254 31.2463 98.4854 31.1863 98.5054 31.0863C98.5454 30.8363 98.5754 30.3063 98.5754 29.4763V26.5363C98.5754 25.6863 98.5754 25.2063 98.5554 25.0963H97.8154C97.1954 25.0963 96.8354 25.1163 96.7354 25.1563C96.6854 25.1763 96.6454 25.2063 96.6254 25.2363C96.5954 25.2963 96.5654 25.4063 96.5454 25.5663C96.5254 25.7463 96.5054 25.9363 96.4954 26.1363L96.4454 26.1863H96.1154L96.0554 26.1363V25.2463C96.0454 24.9963 96.0254 24.7363 95.9854 24.4763L96.0354 24.4263C96.2354 24.4663 96.9854 24.4763 98.2654 24.4763H100.365C101.545 24.4763 102.295 24.4563 102.595 24.4263L102.645 24.4763H102.635Z" fill="#1B1660"/>
<path d="M109.916 24.4963V24.8363L109.856 24.8863C109.496 24.9463 109.236 25.0463 109.086 25.1863C108.936 25.3263 108.646 25.8363 108.196 26.7063C107.756 27.5563 107.326 28.4163 106.886 29.2663C106.136 30.6463 105.606 31.4363 105.276 31.6363C105.026 31.7963 104.736 31.8663 104.416 31.8663C104.266 31.8663 104.116 31.8463 103.946 31.7963L103.896 31.7163C103.896 31.6463 103.896 31.5963 103.896 31.5663C103.896 31.2163 103.846 30.7263 103.746 30.1163L103.796 30.0463L103.966 30.0163L104.046 30.0463C104.326 30.5063 104.646 30.7263 105.006 30.7263C105.296 30.7263 105.516 30.6363 105.666 30.4563C105.736 30.3763 105.816 30.2363 105.906 30.0363C105.096 28.2763 104.456 26.8363 103.996 25.7063C103.846 25.3463 103.726 25.1163 103.626 25.0363C103.546 24.9663 103.306 24.9163 102.906 24.8863L102.846 24.8363V24.4963L102.896 24.4363C103.106 24.4563 103.656 24.4763 104.536 24.4763C105.026 24.4763 105.546 24.4663 106.076 24.4463L106.136 24.5063V24.8463L106.086 24.8963C106.036 24.8963 105.846 24.9163 105.516 24.9663C105.376 24.9863 105.306 25.0363 105.306 25.1363C105.306 25.1663 105.326 25.2463 105.366 25.3663C105.466 25.6663 105.686 26.2063 106.046 26.9863L106.756 28.5163L107.616 26.6663C107.836 26.1863 108.006 25.8063 108.096 25.5263C108.146 25.3763 108.176 25.2763 108.176 25.2163C108.176 25.1263 108.056 25.0563 107.826 25.0063C107.646 24.9663 107.486 24.9363 107.336 24.9163L107.276 24.8663V24.5163L107.336 24.4563C107.666 24.4763 108.126 24.4963 108.706 24.4963C109.186 24.4963 109.566 24.4863 109.846 24.4663L109.896 24.5263L109.916 24.4963Z" fill="#1B1660"/>
<path d="M116.136 26.0663C116.136 26.7763 115.896 27.3363 115.406 27.7363C114.916 28.1363 114.376 28.3363 113.756 28.3363C113.546 28.3363 113.336 28.3163 113.126 28.2663C113.096 28.1763 113.036 28.0463 112.946 27.8963L113.056 27.7863C113.206 27.8363 113.336 27.8563 113.456 27.8563C113.806 27.8563 114.086 27.7363 114.296 27.4863C114.506 27.2363 114.616 26.8963 114.616 26.4463C114.616 25.4863 114.186 24.9963 113.316 24.9963C113.216 24.9963 113.006 25.0163 112.696 25.0563C112.666 25.1363 112.646 25.7063 112.646 26.7463V29.4863C112.646 30.3063 112.666 30.8463 112.716 31.0963C112.736 31.1963 112.796 31.2563 112.896 31.2863C112.926 31.2863 113.166 31.3063 113.606 31.3363L113.666 31.3963V31.7363L113.616 31.7863C113.146 31.7663 112.576 31.7563 111.916 31.7563C111.176 31.7563 110.636 31.7663 110.316 31.7863L110.266 31.7363V31.3863L110.326 31.3263C110.676 31.3063 110.876 31.2863 110.926 31.2763C111.026 31.2463 111.086 31.1863 111.106 31.0863C111.146 30.8363 111.176 30.3063 111.176 29.4763V26.7363C111.176 25.9163 111.156 25.3763 111.106 25.1263C111.086 25.0263 111.026 24.9563 110.926 24.9363C110.876 24.9263 110.676 24.9063 110.316 24.8863L110.266 24.8263V24.4863L110.326 24.4363C110.666 24.4563 111.186 24.4663 111.886 24.4663C112.176 24.4663 112.596 24.4663 113.136 24.4463C113.676 24.4263 113.996 24.4263 114.076 24.4263C115.026 24.4263 115.636 24.6663 115.926 25.1463C116.076 25.3963 116.146 25.6963 116.146 26.0463L116.136 26.0663Z" fill="#1B1660"/>
<path d="M124.756 31.7563L124.706 31.7963C123.986 31.7763 123.456 31.7663 123.086 31.7663C122.346 31.7663 121.816 31.7763 121.496 31.7963L121.446 31.7463V31.3963L121.496 31.3463C121.856 31.3263 122.056 31.3063 122.106 31.2963C122.206 31.2663 122.266 31.2063 122.286 31.1063C122.326 30.8563 122.356 30.3263 122.356 29.4963V25.6663L119.116 31.7963C118.756 31.7863 118.426 31.7763 118.116 31.7763C117.926 31.7763 117.476 31.7763 116.776 31.7963L116.726 31.7463V31.3963L116.776 31.3463C117.126 31.3263 117.326 31.3063 117.386 31.2963C117.486 31.2663 117.546 31.2063 117.566 31.1063C117.606 30.8563 117.636 30.3263 117.636 29.4963V26.7563C117.636 25.9363 117.616 25.3963 117.566 25.1463C117.546 25.0463 117.486 24.9763 117.386 24.9563C117.336 24.9463 117.136 24.9263 116.776 24.9063L116.726 24.8563V24.5063L116.776 24.4563C117.316 24.4763 117.846 24.4863 118.376 24.4863C118.726 24.4863 119.256 24.4763 119.976 24.4563L120.026 24.5063V24.8563L119.976 24.9063C119.626 24.9263 119.426 24.9463 119.366 24.9563C119.266 24.9863 119.206 25.0463 119.186 25.1463C119.146 25.3963 119.116 25.9263 119.116 26.7563V30.6563L122.356 24.4463C122.806 24.4663 123.116 24.4763 123.276 24.4763C123.396 24.4763 123.866 24.4663 124.696 24.4463L124.746 24.4963V24.8463L124.686 24.8963C124.336 24.9163 124.136 24.9363 124.076 24.9463C123.976 24.9763 123.916 25.0363 123.896 25.1363C123.856 25.3863 123.826 25.9163 123.826 26.7463V29.4863C123.826 30.3063 123.846 30.8463 123.896 31.0963C123.916 31.1963 123.976 31.2563 124.076 31.2863C124.126 31.2963 124.326 31.3163 124.686 31.3363L124.736 31.3863V31.7463L124.756 31.7563Z" fill="#1B1660"/>
<path d="M131.455 31.7363L131.405 31.7863C131.055 31.7663 130.525 31.7563 129.805 31.7563C129.085 31.7563 128.555 31.7663 128.205 31.7863L128.155 31.7363V31.3863L128.205 31.3363C128.555 31.3163 128.755 31.2963 128.815 31.2863C128.915 31.2563 128.975 31.1963 128.995 31.0963C129.035 30.8463 129.065 30.3163 129.065 29.4863V26.7463C129.065 25.9263 129.045 25.3863 128.995 25.1363C128.975 25.0363 128.915 24.9663 128.815 24.9463C128.765 24.9363 128.565 24.9163 128.205 24.8963L128.155 24.8463V24.4963L128.205 24.4463C128.535 24.4663 129.065 24.4763 129.805 24.4763C130.545 24.4763 131.065 24.4663 131.395 24.4463L131.445 24.4963V24.8463L131.395 24.8963C131.045 24.9163 130.845 24.9363 130.785 24.9463C130.685 24.9763 130.625 25.0363 130.605 25.1363C130.565 25.3863 130.535 25.9163 130.535 26.7463V29.4863C130.535 30.3063 130.555 30.8463 130.605 31.0963C130.625 31.1963 130.685 31.2563 130.785 31.2863C130.835 31.2963 131.035 31.3163 131.395 31.3363L131.445 31.3863V31.7363H131.455Z" fill="#1B1660"/>
<path d="M142.885 31.7561L142.835 31.7961C142.115 31.7761 141.585 31.7661 141.235 31.7661C140.485 31.7661 139.955 31.7761 139.635 31.7961L139.585 31.7461V31.3961L139.635 31.3461C139.985 31.3261 140.185 31.3061 140.245 31.2961C140.345 31.2661 140.405 31.2061 140.425 31.1061C140.465 30.8561 140.495 30.3261 140.495 29.4961V26.7061C140.495 26.0061 140.475 25.4461 140.445 25.0061H137.295C137.265 25.4361 137.245 26.0061 137.245 26.7061V29.4961C137.245 30.3161 137.265 30.8561 137.315 31.1061C137.335 31.2061 137.395 31.2661 137.495 31.2961C137.545 31.3061 137.745 31.3261 138.095 31.3461L138.155 31.3961V31.7461L138.105 31.7961C137.375 31.7761 136.845 31.7661 136.505 31.7661C135.955 31.7661 135.415 31.7761 134.905 31.7961L134.855 31.7461V31.3961L134.905 31.3461C135.255 31.3261 135.455 31.3061 135.515 31.2961C135.615 31.2661 135.675 31.2061 135.695 31.1061C135.735 30.8561 135.765 30.3261 135.765 29.4961V26.7561C135.765 25.9361 135.745 25.3961 135.695 25.1461C135.675 25.0461 135.615 24.9761 135.515 24.9561C135.465 24.9461 135.265 24.9261 134.905 24.9061L134.855 24.8561V24.5061L134.905 24.4561L137.725 24.4861H140.635C141.045 24.4861 141.775 24.4761 142.825 24.4561L142.875 24.5061V24.8561L142.815 24.9061C142.465 24.9261 142.265 24.9461 142.205 24.9561C142.105 24.9861 142.045 25.0461 142.025 25.1461C141.985 25.3961 141.955 25.9261 141.955 26.7561V29.4961C141.955 30.3161 141.975 30.8561 142.025 31.1061C142.045 31.2061 142.105 31.2661 142.205 31.2961C142.255 31.3061 142.455 31.3261 142.815 31.3461L142.865 31.3961V31.7561H142.885Z" fill="#1B1660"/>
<path d="M149.435 26.0663C149.435 26.7763 149.195 27.3363 148.705 27.7363C148.215 28.1363 147.675 28.3363 147.055 28.3363C146.845 28.3363 146.635 28.3163 146.425 28.2663C146.395 28.1763 146.335 28.0463 146.245 27.8963L146.355 27.7863C146.505 27.8363 146.635 27.8563 146.755 27.8563C147.105 27.8563 147.385 27.7363 147.595 27.4863C147.805 27.2363 147.915 26.8963 147.915 26.4463C147.915 25.4863 147.485 24.9963 146.615 24.9963C146.515 24.9963 146.305 25.0163 145.995 25.0563C145.965 25.1363 145.945 25.7063 145.945 26.7463V29.4863C145.945 30.3063 145.965 30.8463 146.015 31.0963C146.035 31.1963 146.095 31.2563 146.195 31.2863C146.225 31.2863 146.465 31.3063 146.905 31.3363L146.965 31.3963V31.7363L146.915 31.7863C146.445 31.7663 145.875 31.7563 145.215 31.7563C144.475 31.7563 143.935 31.7663 143.615 31.7863L143.565 31.7363V31.3863L143.625 31.3263C143.975 31.3063 144.175 31.2863 144.225 31.2763C144.325 31.2463 144.385 31.1863 144.405 31.0863C144.445 30.8363 144.475 30.3063 144.475 29.4763V26.7363C144.475 25.9163 144.455 25.3763 144.405 25.1263C144.385 25.0263 144.325 24.9563 144.225 24.9363C144.175 24.9263 143.975 24.9063 143.615 24.8863L143.565 24.8263V24.4863L143.625 24.4363C143.965 24.4563 144.485 24.4663 145.185 24.4663C145.475 24.4663 145.895 24.4663 146.435 24.4463C146.975 24.4263 147.295 24.4263 147.375 24.4263C148.325 24.4263 148.935 24.6663 149.225 25.1463C149.375 25.3963 149.445 25.6963 149.445 26.0463L149.435 26.0663Z" fill="#1B1660"/>
<path d="M157.705 31.7362L157.655 31.7862C156.885 31.7662 156.425 31.7562 156.265 31.7562C155.625 31.7562 155.035 31.7662 154.495 31.7862L154.445 31.7362V31.4062L154.495 31.3462L154.945 31.3162C155.135 31.3162 155.235 31.2362 155.235 31.1162C155.235 31.0462 155.185 30.8862 155.085 30.6262L154.665 29.5362C154.185 29.5362 153.705 29.5362 153.205 29.5362C152.935 29.5362 152.535 29.5362 152.005 29.5362L151.775 30.1662C151.605 30.6462 151.515 30.9462 151.515 31.0662C151.515 31.1962 151.595 31.2762 151.755 31.2962C151.845 31.3062 152.025 31.3262 152.285 31.3362L152.335 31.3862V31.7162L152.285 31.7662C151.645 31.7462 151.235 31.7362 151.055 31.7362C150.915 31.7362 150.565 31.7462 150.005 31.7662L149.955 31.7162V31.3762L150.015 31.3262C150.375 31.3062 150.585 31.2362 150.675 31.1162C150.755 30.9962 151.065 30.2762 151.595 28.9562L152.945 25.5762C153.045 25.3162 153.195 24.9162 153.405 24.3862H154.145L156.895 30.8462C157.005 31.0962 157.095 31.2362 157.185 31.2562C157.295 31.2962 157.465 31.3162 157.675 31.3162L157.725 31.3762V31.7062L157.705 31.7362ZM154.415 28.9462L153.305 26.2262L152.245 28.9462C152.525 28.9562 152.895 28.9562 153.345 28.9562C153.795 28.9562 154.145 28.9562 154.415 28.9462Z" fill="#1B1660"/>
<path d="M164.375 29.4163C164.375 30.2863 163.955 30.9563 163.115 31.4363C162.705 31.6663 162.165 31.7863 161.515 31.7863C161.305 31.7863 161.135 31.7863 161.005 31.7863L159.765 31.7663C159.325 31.7663 158.985 31.7763 158.735 31.7963L158.685 31.7463V31.5963L158.715 31.5363C158.975 31.3763 159.105 31.2663 159.125 31.2263C159.155 31.1663 159.175 30.9363 159.185 30.5363L159.205 29.3763V26.7463C159.205 25.9263 159.185 25.3863 159.135 25.1363C159.115 25.0363 159.055 24.9663 158.955 24.9463C158.905 24.9363 158.705 24.9163 158.345 24.8963L158.295 24.8463V24.4963L158.345 24.4463C158.655 24.4663 159.185 24.4763 159.935 24.4763C160.415 24.4763 160.845 24.4663 161.225 24.4463C161.525 24.4363 161.785 24.4263 161.995 24.4263C162.955 24.4263 163.595 24.6463 163.895 25.0863C164.055 25.3163 164.135 25.5863 164.135 25.8863C164.135 26.3763 163.945 26.7863 163.555 27.1163C163.375 27.2763 163.185 27.3863 162.985 27.4663C162.755 27.5563 162.505 27.6263 162.235 27.6863C163.655 27.7463 164.375 28.3263 164.375 29.4263V29.4163ZM162.565 26.1363C162.565 25.3763 162.165 24.9963 161.375 24.9963C161.115 24.9963 160.885 25.0063 160.705 25.0363C160.695 25.3963 160.685 25.7363 160.685 26.0363V27.4663C160.765 27.4663 160.925 27.4763 161.165 27.4763C161.795 27.4763 162.205 27.2763 162.395 26.8763C162.505 26.6463 162.565 26.3963 162.565 26.1363ZM162.785 29.5763C162.785 28.5363 162.245 28.0163 161.155 28.0163C161.015 28.0163 160.855 28.0163 160.685 28.0363V30.4363C160.685 30.6963 160.685 30.9463 160.705 31.1963C160.845 31.2163 161.045 31.2363 161.305 31.2363C161.785 31.2363 162.165 31.0863 162.425 30.7763C162.675 30.4863 162.795 30.0863 162.795 29.5763H162.785Z" fill="#1B1660"/>
<path d="M172.976 31.7362L172.926 31.7862C172.156 31.7662 171.696 31.7562 171.536 31.7562C170.896 31.7562 170.306 31.7662 169.766 31.7862L169.716 31.7362V31.4062L169.766 31.3462L170.216 31.3162C170.406 31.3162 170.506 31.2362 170.506 31.1162C170.506 31.0462 170.456 30.8862 170.356 30.6262L169.936 29.5362C169.456 29.5362 168.976 29.5362 168.476 29.5362C168.206 29.5362 167.806 29.5362 167.276 29.5362L167.046 30.1662C166.876 30.6462 166.786 30.9462 166.786 31.0662C166.786 31.1962 166.866 31.2762 167.026 31.2962C167.116 31.3062 167.296 31.3262 167.556 31.3362L167.606 31.3862V31.7162L167.556 31.7662C166.916 31.7462 166.506 31.7362 166.326 31.7362C166.186 31.7362 165.836 31.7462 165.276 31.7662L165.226 31.7162V31.3762L165.286 31.3262C165.646 31.3062 165.856 31.2362 165.946 31.1162C166.026 30.9962 166.336 30.2762 166.866 28.9562L168.216 25.5762C168.316 25.3162 168.466 24.9162 168.676 24.3862H169.416L172.166 30.8462C172.276 31.0962 172.366 31.2362 172.456 31.2562C172.566 31.2962 172.736 31.3162 172.946 31.3162L172.996 31.3762V31.7062L172.976 31.7362ZM169.686 28.9462L168.576 26.2262L167.516 28.9462C167.796 28.9562 168.166 28.9562 168.616 28.9562C169.066 28.9562 169.416 28.9562 169.686 28.9462Z" fill="#1B1660"/>
<path d="M184.396 31.7363L184.346 31.7863C184.006 31.7663 183.476 31.7563 182.746 31.7563C182.016 31.7563 181.476 31.7663 181.146 31.7863L181.096 31.7363V31.3863L181.156 31.3363C181.506 31.3163 181.706 31.2963 181.766 31.2863C181.866 31.2563 181.926 31.1963 181.946 31.0963C181.986 30.8463 182.016 30.3163 182.016 29.4863V28.2363C181.836 28.2163 181.276 28.2163 180.336 28.2163C179.466 28.2163 178.896 28.2163 178.616 28.2363V29.4863C178.616 30.3063 178.636 30.8463 178.686 31.0963C178.706 31.1963 178.766 31.2563 178.866 31.2863C178.916 31.2963 179.116 31.3163 179.476 31.3363L179.526 31.3863V31.7363L179.476 31.7863C179.126 31.7663 178.596 31.7563 177.876 31.7563C177.156 31.7563 176.596 31.7663 176.276 31.7863L176.226 31.7363V31.3863L176.276 31.3363C176.626 31.3163 176.826 31.2963 176.886 31.2863C176.986 31.2563 177.046 31.1963 177.066 31.0963C177.106 30.8463 177.136 30.3163 177.136 29.4863V26.7463C177.136 25.9263 177.116 25.3863 177.066 25.1363C177.046 25.0363 176.986 24.9663 176.886 24.9463C176.836 24.9363 176.636 24.9163 176.276 24.8963L176.226 24.8463V24.4963L176.276 24.4463C176.606 24.4663 177.136 24.4763 177.876 24.4763C178.616 24.4763 179.156 24.4663 179.476 24.4463L179.526 24.4963V24.8563L179.476 24.9063C179.126 24.9263 178.926 24.9463 178.866 24.9563C178.766 24.9863 178.706 25.0463 178.686 25.1463C178.646 25.3963 178.616 25.9263 178.616 26.7563V27.6163C178.986 27.6363 179.486 27.6463 180.126 27.6463C181.136 27.6463 181.766 27.6363 182.016 27.6163V26.7563C182.016 25.9363 181.996 25.3963 181.946 25.1463C181.926 25.0463 181.866 24.9763 181.766 24.9563C181.716 24.9463 181.516 24.9263 181.156 24.9063L181.096 24.8563V24.5063L181.146 24.4563C181.476 24.4763 182.016 24.4863 182.746 24.4863C183.476 24.4863 184.036 24.4763 184.346 24.4563L184.396 24.5063V24.8663L184.346 24.9163C183.986 24.9363 183.786 24.9563 183.736 24.9663C183.636 24.9963 183.576 25.0563 183.556 25.1563C183.516 25.4063 183.486 25.9363 183.486 26.7663V29.5063C183.486 30.3263 183.506 30.8663 183.556 31.1163C183.576 31.2163 183.636 31.2763 183.736 31.3063C183.786 31.3163 183.986 31.3363 184.346 31.3563L184.396 31.4063V31.7563V31.7363Z" fill="#1B1660"/>
<path d="M192.735 31.7362L192.685 31.7862C191.915 31.7662 191.455 31.7562 191.295 31.7562C190.655 31.7562 190.065 31.7662 189.525 31.7862L189.475 31.7362V31.4062L189.525 31.3462L189.975 31.3162C190.165 31.3162 190.265 31.2362 190.265 31.1162C190.265 31.0462 190.215 30.8862 190.115 30.6262L189.695 29.5362C189.215 29.5362 188.735 29.5362 188.235 29.5362C187.965 29.5362 187.565 29.5362 187.035 29.5362L186.805 30.1662C186.635 30.6462 186.545 30.9462 186.545 31.0662C186.545 31.1962 186.625 31.2762 186.785 31.2962C186.875 31.3062 187.055 31.3262 187.315 31.3362L187.365 31.3862V31.7162L187.315 31.7662C186.675 31.7462 186.265 31.7362 186.085 31.7362C185.945 31.7362 185.595 31.7462 185.035 31.7662L184.985 31.7162V31.3762L185.045 31.3262C185.405 31.3062 185.615 31.2362 185.705 31.1162C185.785 30.9962 186.095 30.2762 186.625 28.9562L187.975 25.5762C188.075 25.3162 188.225 24.9162 188.435 24.3862H189.175L191.925 30.8462C192.035 31.0962 192.125 31.2362 192.215 31.2562C192.325 31.2962 192.495 31.3162 192.705 31.3162L192.755 31.3762V31.7062L192.735 31.7362ZM189.445 28.9462L188.335 26.2262L187.275 28.9462C187.555 28.9562 187.925 28.9562 188.375 28.9562C188.825 28.9562 189.175 28.9562 189.445 28.9462Z" fill="#1B1660"/>
<path d="M200.995 31.7362L200.945 31.7862C200.175 31.7662 199.715 31.7562 199.555 31.7562C198.915 31.7562 198.325 31.7662 197.785 31.7862L197.735 31.7362V31.4062L197.785 31.3462L198.235 31.3162C198.425 31.3162 198.525 31.2362 198.525 31.1162C198.525 31.0462 198.475 30.8862 198.375 30.6262L197.955 29.5362C197.475 29.5362 196.995 29.5362 196.495 29.5362C196.225 29.5362 195.825 29.5362 195.295 29.5362L195.065 30.1662C194.895 30.6462 194.805 30.9462 194.805 31.0662C194.805 31.1962 194.885 31.2762 195.045 31.2962C195.135 31.3062 195.315 31.3262 195.575 31.3362L195.625 31.3862V31.7162L195.575 31.7662C194.935 31.7462 194.525 31.7362 194.345 31.7362C194.205 31.7362 193.855 31.7462 193.295 31.7662L193.245 31.7162V31.3762L193.305 31.3262C193.665 31.3062 193.875 31.2362 193.965 31.1162C194.045 30.9962 194.355 30.2762 194.885 28.9562L196.235 25.5762C196.335 25.3162 196.485 24.9162 196.695 24.3862H197.435L200.185 30.8462C200.295 31.0962 200.385 31.2362 200.475 31.2562C200.585 31.2962 200.755 31.3162 200.965 31.3162L201.015 31.3762V31.7062L200.995 31.7362ZM197.705 28.9462L196.595 26.2262L195.535 28.9462C195.815 28.9562 196.185 28.9562 196.635 28.9562C197.085 28.9562 197.435 28.9562 197.705 28.9462Z" fill="#1B1660"/>
<path d="M208.315 24.4963V24.8363L208.255 24.8863C207.895 24.9463 207.635 25.0463 207.485 25.1863C207.335 25.3263 207.045 25.8363 206.595 26.7063C206.155 27.5563 205.725 28.4163 205.285 29.2663C204.535 30.6463 204.005 31.4363 203.675 31.6363C203.425 31.7963 203.135 31.8663 202.815 31.8663C202.665 31.8663 202.515 31.8463 202.345 31.7963L202.295 31.7163C202.295 31.6463 202.295 31.5963 202.295 31.5663C202.295 31.2163 202.245 30.7263 202.145 30.1163L202.195 30.0463L202.365 30.0163L202.445 30.0463C202.725 30.5063 203.045 30.7263 203.405 30.7263C203.695 30.7263 203.915 30.6363 204.065 30.4563C204.135 30.3763 204.215 30.2363 204.305 30.0363C203.495 28.2763 202.855 26.8363 202.395 25.7063C202.245 25.3463 202.125 25.1163 202.025 25.0363C201.945 24.9663 201.705 24.9163 201.305 24.8863L201.245 24.8363V24.4963L201.295 24.4363C201.505 24.4563 202.055 24.4763 202.935 24.4763C203.425 24.4763 203.945 24.4663 204.475 24.4463L204.535 24.5063V24.8463L204.485 24.8963C204.435 24.8963 204.245 24.9163 203.915 24.9663C203.775 24.9863 203.705 25.0363 203.705 25.1363C203.705 25.1663 203.725 25.2463 203.765 25.3663C203.865 25.6663 204.085 26.2063 204.445 26.9863L205.155 28.5163L206.015 26.6663C206.235 26.1863 206.405 25.8063 206.495 25.5263C206.545 25.3763 206.575 25.2763 206.575 25.2163C206.575 25.1263 206.455 25.0563 206.225 25.0063C206.045 24.9663 205.885 24.9363 205.735 24.9163L205.675 24.8663V24.5163L205.735 24.4563C206.065 24.4763 206.525 24.4963 207.105 24.4963C207.585 24.4963 207.965 24.4863 208.245 24.4663L208.295 24.5263L208.315 24.4963Z" fill="#1B1660"/>
</svg>
