<svg width="20" height="16" viewBox="0 0 20 16" fill="none" xmlns="http://www.w3.org/2000/svg">
<path d="M19.3068 1.79057C18.6145 2.09423 17.8769 2.29551 17.1078 2.39324C17.899 1.92087 18.5028 1.17859 18.7867 0.283885C18.0491 0.723673 17.2347 1.03432 16.3667 1.20767C15.6663 0.461894 14.6681 0 13.5791 0C11.4662 0 9.76524 1.71494 9.76524 3.81732C9.76524 4.11982 9.79084 4.41068 9.85367 4.68759C6.68091 4.53285 3.87347 3.0122 1.9875 0.69575C1.65824 1.26701 1.46511 1.92088 1.46511 2.62477C1.46511 3.94646 2.14573 5.11807 3.16027 5.79637C2.54713 5.78473 1.94562 5.60672 1.43602 5.32633C1.43602 5.33796 1.43602 5.35309 1.43602 5.36821C1.43602 7.22277 2.75888 8.76319 4.4936 9.11805C4.18295 9.20298 3.84439 9.2437 3.49302 9.2437C3.24869 9.2437 3.00204 9.22974 2.77051 9.17855C3.26498 10.6899 4.66812 11.801 6.33652 11.8371C5.0381 12.8528 3.38947 13.4647 1.60472 13.4647C1.29175 13.4647 0.991579 13.4508 0.691406 13.4124C2.38192 14.5025 4.3854 15.125 6.54594 15.125C13.5686 15.125 17.408 9.30769 17.408 4.26525C17.408 4.09655 17.4022 3.93366 17.3941 3.77194C18.1515 3.23442 18.7879 2.56311 19.3068 1.79057Z" fill="#171233"/>
</svg>
